<svg id="Layer_1" data-name="Layer 1" xmlns="http://www.w3.org/2000/svg" xmlns:xlink="http://www.w3.org/1999/xlink" viewBox="0 0 200.33 225.09">
  <defs>
    <style>.cls-1{fill:url(#radial-gradient);}.cls-2{fill:#c5a807;}.cls-3{fill:#f9e64a;}.cls-4{fill:#fff;}
    </style>
    <radialGradient id="radial-gradient" cx="0.51" cy="-0.01" r="0.74"
      gradientTransform="translate(146.14 185.08) scale(210.97 237.25)" gradientUnits="userSpaceOnUse">
      <stop offset="0" stop-color="#faeb0f"/><stop offset="1" stop-color="#f1c309"/>
    </radialGradient>
  </defs>
  <title>js-icon</title>
  <path class="cls-1" d="M314,181A313.69,313.69,0,0,0,177.11,329.54L242.17,367a16.06,16.06,0,0,0,7.82,1.86h0a16.09,16.09,0,0,0,7.82-1.86l83-47.83a17.34,17.34,0,0,0,7.83-13.55V210a17.38,17.38,0,0,0-7.83-13.55L314,181" transform="translate(-149.84 -145.28)"/>
  <path class="cls-2" d="M241.8,148l.37.64a17.43,17.43,0,0,1,15.67,0l83,47.83A17.38,17.38,0,0,1,348.68,210v95.64a17.34,17.34,0,0,1-7.83,13.55l-83,47.83a17.43,17.43,0,0,1-15.67,0l-83-47.83a17.38,17.38,0,0,1-7.84-13.55V210a17.43,17.43,0,0,1,7.84-13.55l83-47.83-.37-.64-.37-.65-83,47.83A18.84,18.84,0,0,0,149.84,210v95.64a18.84,18.84,0,0,0,8.57,14.84l83,47.83a19,19,0,0,0,17.15,0l83-47.83a18.89,18.89,0,0,0,8.58-14.84V210a18.89,18.89,0,0,0-8.58-14.84l-83-47.83a19,19,0,0,0-17.15,0l.37.65" transform="translate(-149.84 -145.28)"/>
  <path class="cls-3" d="M250,146.76h0a16.06,16.06,0,0,0-7.82,1.86h0l-83,47.83A17.43,17.43,0,0,0,151.32,210v95.64a17.38,17.38,0,0,0,7.84,13.55l18,10.35A313.69,313.69,0,0,1,314,181l-56.2-32.38a16.09,16.09,0,0,0-7.82-1.86" transform="translate(-149.84 -145.28)"/>
  <path class="cls-4" d="M223.11,296.49a24.52,24.52,0,0,0,9-6.06,25.43,25.43,0,0,0,5.62-9.5,41.49,41.49,0,0,0,1.84-13.05V217.11H218.76v51.16c0,3.78-.83,6.62-2.46,8.52a8.3,8.3,0,0,1-6.63,2.81,11.44,11.44,0,0,1-6.54-1.92,27,27,0,0,1-5.86-5.45l-14.2,13.23A30.71,30.71,0,0,0,194,294.78a33.07,33.07,0,0,0,7.6,2.78,43.6,43.6,0,0,0,9.44,1A33.83,33.83,0,0,0,223.11,296.49Z" transform="translate(-149.84 -145.28)"/>
  <path class="cls-4" d="M297.88,296.76a30.56,30.56,0,0,0,10.3-5.15,23.93,23.93,0,0,0,6.65-8.16,24.26,24.26,0,0,0,2.4-11v-.24a22.15,22.15,0,0,0-2-9.65,19.06,19.06,0,0,0-5.65-6.92,35.6,35.6,0,0,0-9-4.85,93.39,93.39,0,0,0-11.84-3.52,65.2,65.2,0,0,1-6.5-1.75,19.36,19.36,0,0,1-4-1.72,5.35,5.35,0,0,1-2.07-1.89,4.55,4.55,0,0,1-.59-2.4v-.23a4.44,4.44,0,0,1,2-3.67c1.3-1,3.31-1.48,6-1.48a33.71,33.71,0,0,1,11.06,2A46.09,46.09,0,0,1,305.78,242l11-15.83a45.8,45.8,0,0,0-14.5-8.17,56,56,0,0,0-18.23-2.78,41.83,41.83,0,0,0-13,1.9,29.69,29.69,0,0,0-9.88,5.32,22.41,22.41,0,0,0-6.28,8.11,24.69,24.69,0,0,0-2.13,10.3v.2a21.79,21.79,0,0,0,2.22,10.36,20,20,0,0,0,6.13,7A33,33,0,0,0,270.3,263c3.49,1.18,7.25,2.28,11.33,3.25q3.92.94,6.39,1.78a22.71,22.71,0,0,1,3.91,1.77,5.7,5.7,0,0,1,2,1.9,4.52,4.52,0,0,1,.57,2.22v.2a4.56,4.56,0,0,1-2.34,4.09,13,13,0,0,1-6.75,1.42q-13.89,0-25.8-9.56L247.37,284.9a48.75,48.75,0,0,0,16.95,10.23,60.79,60.79,0,0,0,20.3,3.41A46.64,46.64,0,0,0,297.88,296.76Z" transform="translate(-149.84 -145.28)"/>
</svg>
