<svg width="259" height="67" viewBox="0 0 259 67" fill="none" xmlns="http://www.w3.org/2000/svg">
<path d="M1.47152 60.0217C0.378925 60.8658 0.177524 62.4359 1.02168 63.5285C1.86584 64.6211 3.43588 64.8225 4.52848 63.9783L1.47152 60.0217ZM256.247 64.4877C257.621 64.3512 258.624 63.1266 258.488 61.7527L256.262 39.3631C256.125 37.9891 254.901 36.986 253.527 37.1226C252.153 37.2592 251.15 38.4837 251.286 39.8577L253.265 59.7596L233.363 61.7381C231.989 61.8747 230.986 63.0992 231.123 64.4731C231.259 65.8471 232.484 66.8501 233.858 66.7135L256.247 64.4877ZM4.52848 63.9783C56.9319 23.4907 96.3608 4.90657 133.976 5.51443C171.584 6.1222 208.014 25.9239 254.416 63.934L257.584 60.066C211.014 21.9179 173.451 1.15172 134.056 0.515087C94.6678 -0.121446 54.0827 19.3735 1.47152 60.0217L4.52848 63.9783Z" fill="white"/>
</svg>
