<svg width="362" height="241" viewBox="0 0 362 241" fill="none" xmlns="http://www.w3.org/2000/svg">
<g clip-path="url(#clip0)">
<g filter="url(#filter0_d)">
<path d="M18.0361 67.9945C18.0361 67.9945 56.6945 13.0378 90.319 49.0104C119.277 80.0031 144.069 44.2233 150.389 33.6851C152.616 29.9239 155.227 26.3901 158.183 23.1373C167.119 13.4137 184.128 0.648373 198.088 23.2288C218.05 55.528 253.05 13.5873 253.05 13.5873C253.05 13.5873 278.161 -17.8682 284.256 14.942C290.353 47.7522 323.476 36.0906 323.476 36.0906C323.476 36.0906 390.705 15.7663 347.513 98.1485C324.722 141.632 325.02 160.129 330.381 167.9C337.412 178.086 334.899 196.825 324.141 209.841C314.152 221.936 301.801 227.48 290.458 206.009C270.629 168.455 243.79 201.501 234.393 215.24C229.384 222.573 223.576 228.998 217.256 233.873C205.455 242.979 189.951 248.436 187.613 217.236C183.726 165.842 143.678 203.044 143.678 203.044C143.678 203.044 114.183 230.118 109.219 194.757C105.247 166.315 84.5851 177.86 76.617 183.486C72.8341 186.157 68.9022 187.935 65.1143 188.461C57.4243 189.527 47.56 186.875 50.0422 164.96C50.1066 164.414 50.1613 163.88 50.2109 163.35C52.1968 142.409 42.089 127.675 26.4261 127.893C11.2249 128.105 -19.7634 122.686 18.0361 67.9945Z" fill="url(#paint0_linear)"/>
<path d="M186.725 166.323H147.649V186.199H186.725V166.323Z" fill="#445EA0"/>
<path d="M157.499 166.323H147.649V186.199H157.499V166.323Z" fill="#2E4C89"/>
<path d="M212.753 185.722H118.776C118.105 185.723 117.461 185.982 116.987 186.443C116.512 186.904 116.245 187.529 116.244 188.18V200.507C116.246 201.159 116.514 201.782 116.988 202.242C117.462 202.703 118.105 202.963 118.776 202.965H212.753V185.722Z" fill="#293D7C"/>
<path d="M126.099 200.508V188.18C126.1 187.528 126.367 186.904 126.841 186.442C127.315 185.98 127.958 185.72 128.63 185.717H118.776C118.104 185.72 117.46 185.98 116.987 186.442C116.512 186.904 116.245 187.528 116.244 188.18V200.508C116.246 201.159 116.514 201.782 116.988 202.243C117.462 202.704 118.105 202.964 118.776 202.966H128.63C127.959 202.965 127.316 202.706 126.841 202.244C126.367 201.783 126.1 201.159 126.099 200.508Z" fill="#1A2B63"/>
<g filter="url(#filter1_d)">
<path d="M276.398 21.9121H57.9854C57.3138 21.9134 56.67 22.1727 56.1947 22.6333C55.7194 23.094 55.4511 23.7185 55.4485 24.3707V164.347C55.4511 164.998 55.7194 165.624 56.1947 166.084C56.67 166.545 57.3138 166.804 57.9854 166.805H212.753V93.1631C212.753 92.2681 213.119 91.4098 213.771 90.7769C214.422 90.1441 215.306 89.7885 216.228 89.7885H278.93V24.3707C278.929 23.7191 278.661 23.0944 278.186 22.6336C277.713 22.1728 277.069 21.9134 276.398 21.9121Z" fill="#293D7C"/>
</g>
<path d="M66.569 142.209C66.5702 142.6 66.7307 142.975 67.0154 143.251C67.3 143.528 67.6856 143.683 68.0881 143.685H212.753V93.1629C212.753 92.268 213.119 91.4096 213.771 90.7768C214.422 90.1439 215.306 89.7884 216.228 89.7884H267.809V46.0303H66.569V142.209Z" fill="white"/>
<path d="M76.4185 142.209V46.0303H66.569V142.209C66.5702 142.6 66.7307 142.975 67.0153 143.251C67.3 143.528 67.6856 143.683 68.0881 143.685H77.9426C77.5393 143.685 77.1523 143.53 76.8666 143.252C76.581 142.976 76.4198 142.601 76.4185 142.209Z" fill="#D9EAFC"/>
<path d="M167.189 161.84C170.964 161.84 174.025 158.869 174.025 155.202C174.025 151.536 170.964 148.563 167.189 148.563C163.413 148.563 160.353 151.536 160.353 155.202C160.353 158.869 163.413 161.84 167.189 161.84Z" fill="#445EA0"/>
<path d="M212.753 101.06H186.232C185.837 101.06 185.459 101.212 185.18 101.483C184.9 101.754 184.744 102.122 184.744 102.506V131.257C184.744 131.641 184.9 132.008 185.18 132.279C185.459 132.551 185.837 132.703 186.232 132.703H212.753V101.06Z" fill="#C3DDF4"/>
<path d="M194.608 131.257V102.506C194.608 102.122 194.765 101.754 195.044 101.483C195.323 101.212 195.702 101.06 196.097 101.06H186.232C185.837 101.06 185.459 101.212 185.18 101.483C184.9 101.754 184.744 102.122 184.744 102.506V131.257C184.744 131.641 184.9 132.008 185.18 132.279C185.459 132.551 185.837 132.703 186.232 132.703H196.097C195.702 132.703 195.323 132.551 195.044 132.279C194.765 132.008 194.608 131.641 194.608 131.257Z" fill="#AEC1ED"/>
<path d="M216.229 89.789H239.373V58.2707C239.373 57.6314 239.111 57.0183 238.645 56.5663C238.181 56.1143 237.549 55.8604 236.89 55.8604H97.4928C96.8345 55.8604 96.2031 56.1143 95.7376 56.5663C95.2721 57.0183 95.0106 57.6314 95.0106 58.2707V90.3384C95.0106 90.9778 95.2721 91.5909 95.7376 92.0429C96.2031 92.4949 96.8345 92.7489 97.4928 92.7489H212.783C212.887 91.9325 213.294 91.1812 213.929 90.6361C214.563 90.091 215.381 89.7897 216.229 89.789Z" fill="#C3DDF4"/>
<path d="M104.86 90.3384V58.2707C104.86 57.6314 105.122 57.0183 105.587 56.5663C106.053 56.1143 106.684 55.8604 107.342 55.8604H97.4928C96.8345 55.8604 96.2031 56.1143 95.7376 56.5663C95.2721 57.0183 95.0106 57.6314 95.0106 58.2707V90.3384C95.0106 90.9778 95.2721 91.5909 95.7376 92.0429C96.2031 92.4949 96.8345 92.7489 97.4928 92.7489H107.342C106.684 92.7489 106.053 92.4949 105.587 92.0429C105.122 91.5909 104.86 90.9778 104.86 90.3384Z" fill="#AEC1ED"/>
<path d="M266.29 34.4561H68.0881C67.6856 34.4573 67.3 34.6132 67.0154 34.8895C66.7307 35.1659 66.5702 35.5404 66.569 35.9313V46.5128H267.809V35.9313C267.809 35.54 267.649 35.1648 267.365 34.8881C267.08 34.6115 266.692 34.4561 266.29 34.4561Z" fill="#FFAF10"/>
<path d="M77.9426 34.4561H68.0881C67.6856 34.4573 67.3 34.6132 67.0153 34.8895C66.7307 35.1659 66.5702 35.5404 66.569 35.9313V46.5128H76.4185V35.9313C76.4198 35.5396 76.581 35.1644 76.8666 34.8878C77.1523 34.6114 77.5393 34.4561 77.9426 34.4561Z" fill="#FF9518"/>
<path d="M140.594 108.691H98.7933C97.8059 108.691 96.8587 108.31 96.1605 107.632C95.4623 106.954 95.0699 106.034 95.0699 105.076C95.0699 104.117 95.4623 103.197 96.1605 102.519C96.8587 101.841 97.8059 101.46 98.7933 101.46H140.594C141.582 101.46 142.529 101.841 143.227 102.519C143.925 103.197 144.318 104.117 144.318 105.076C144.318 106.034 143.925 106.954 143.227 107.632C142.529 108.31 141.582 108.691 140.594 108.691Z" fill="#5DC1D8"/>
<path d="M140.594 120.516H98.7933C97.8059 120.516 96.8587 120.135 96.1605 119.457C95.4623 118.779 95.0699 117.86 95.0699 116.901C95.0699 115.942 95.4623 115.022 96.1605 114.344C96.8587 113.666 97.8059 113.285 98.7933 113.285H140.594C141.582 113.285 142.529 113.666 143.227 114.344C143.925 115.022 144.318 115.942 144.318 116.901C144.318 117.86 143.925 118.779 143.227 119.457C142.529 120.135 141.582 120.516 140.594 120.516Z" fill="#5DC1D8"/>
<path d="M140.594 132.303H98.7933C97.8059 132.303 96.8587 131.922 96.1605 131.244C95.4623 130.566 95.0699 129.646 95.0699 128.687C95.0699 127.729 95.4623 126.809 96.1605 126.131C96.8587 125.453 97.8059 125.071 98.7933 125.071H140.594C141.582 125.071 142.529 125.453 143.227 126.131C143.925 126.809 144.318 127.729 144.318 128.687C144.318 129.646 143.925 130.566 143.227 131.244C142.529 131.922 141.582 132.303 140.594 132.303Z" fill="#5DC1D8"/>
<path d="M173.385 108.691H151.879C150.891 108.691 149.944 108.31 149.246 107.632C148.548 106.954 148.155 106.034 148.155 105.076C148.155 104.117 148.548 103.197 149.246 102.519C149.944 101.841 150.891 101.46 151.879 101.46H173.385C174.373 101.46 175.319 101.841 176.018 102.519C176.716 103.197 177.108 104.117 177.108 105.076C177.108 106.034 176.716 106.954 176.018 107.632C175.319 108.31 174.373 108.691 173.385 108.691Z" fill="#5DC1D8"/>
<path d="M173.385 120.516H151.879C150.891 120.516 149.944 120.135 149.246 119.457C148.548 118.779 148.155 117.86 148.155 116.901C148.155 115.942 148.548 115.022 149.246 114.344C149.944 113.666 150.891 113.285 151.879 113.285H173.385C174.373 113.285 175.319 113.666 176.018 114.344C176.716 115.022 177.108 115.942 177.108 116.901C177.108 117.86 176.716 118.779 176.018 119.457C175.319 120.135 174.373 120.516 173.385 120.516Z" fill="#5DC1D8"/>
<path d="M173.385 132.303H151.879C150.891 132.303 149.944 131.922 149.246 131.244C148.548 130.566 148.155 129.646 148.155 128.687C148.155 127.729 148.548 126.809 149.246 126.131C149.944 125.453 150.891 125.071 151.879 125.071H173.385C174.373 125.071 175.319 125.453 176.018 126.131C176.716 126.809 177.108 127.729 177.108 128.687C177.108 129.646 176.716 130.566 176.018 131.244C175.319 131.922 174.373 132.303 173.385 132.303Z" fill="#5DC1D8"/>
<g filter="url(#filter2_d)">
<path d="M305.658 89.3066C306.712 89.3066 307.722 89.713 308.467 90.4362C309.212 91.1596 309.63 92.1405 309.63 93.1633V209.7C309.63 210.723 309.212 211.704 308.467 212.427C307.722 213.151 306.712 213.557 305.658 213.557H216.228C215.175 213.557 214.165 213.151 213.42 212.427C212.675 211.704 212.257 210.723 212.257 209.7V93.1633C212.257 92.1405 212.675 91.1596 213.42 90.4362C214.165 89.713 215.175 89.3066 216.228 89.3066H305.658Z" fill="#375289"/>
</g>
<path d="M223.035 198.429C222.376 198.429 221.745 198.176 221.279 197.724C220.813 197.272 220.552 196.658 220.552 196.018V99.1214C220.552 98.4821 220.813 97.869 221.279 97.417C221.745 96.9649 222.376 96.7109 223.035 96.7109H298.862C299.521 96.7109 300.152 96.9649 300.617 97.417C301.082 97.869 301.344 98.4821 301.344 99.1214V196.018C301.344 196.658 301.082 197.272 300.617 197.724C300.152 198.176 299.521 198.429 298.862 198.429H223.035Z" fill="white"/>
<path d="M230.402 196.018V99.1214C230.402 98.4821 230.664 97.869 231.129 97.417C231.594 96.9649 232.225 96.7109 232.884 96.7109H223.035C222.376 96.7109 221.745 96.9649 221.279 97.417C220.813 97.869 220.552 98.4821 220.552 99.1214V196.018C220.552 196.658 220.813 197.272 221.279 197.724C221.745 198.176 222.376 198.429 223.035 198.429H232.884C232.225 198.429 231.594 198.176 231.129 197.724C230.664 197.272 230.402 196.658 230.402 196.018Z" fill="#D9EAFC"/>
<path d="M256.296 208.071C255.638 208.071 255.007 207.817 254.541 207.365C254.075 206.913 253.814 206.3 253.814 205.661V204.721C253.814 204.081 254.075 203.468 254.541 203.016C255.007 202.564 255.638 202.311 256.296 202.311H265.6C266.259 202.311 266.89 202.564 267.355 203.016C267.82 203.468 268.082 204.081 268.082 204.721V205.661C268.082 206.3 267.82 206.913 267.355 207.365C266.89 207.817 266.259 208.071 265.6 208.071H256.296Z" fill="#445EA0"/>
<path d="M301.344 106.054V99.1603C301.344 98.5211 301.082 97.908 300.617 97.456C300.152 97.0039 299.521 96.75 298.862 96.75H223.035C222.376 96.75 221.745 97.0039 221.279 97.456C220.813 97.908 220.552 98.5211 220.552 99.1603V106.054H301.344Z" fill="#FFAF10"/>
<path d="M232.884 96.7354H223.035C222.376 96.7354 221.745 96.9893 221.279 97.4413C220.813 97.8933 220.552 98.5064 220.552 99.1458V106.054H230.402V99.1602C230.4 98.8424 230.463 98.5274 230.586 98.2334C230.71 97.9393 230.893 97.6718 231.124 97.4465C231.354 97.2211 231.628 97.0422 231.931 96.9202C232.233 96.7982 232.556 96.7354 232.884 96.7354Z" fill="#FF9518"/>
<path d="M277.867 150.13H244.024C243.037 150.13 242.09 149.749 241.391 149.071C240.694 148.393 240.301 147.474 240.301 146.515C240.301 145.556 240.694 144.637 241.391 143.959C242.09 143.281 243.037 142.899 244.024 142.899H277.867C278.855 142.899 279.802 143.281 280.5 143.959C281.198 144.637 281.591 145.556 281.591 146.515C281.591 147.474 281.198 148.393 280.5 149.071C279.802 149.749 278.855 150.13 277.867 150.13Z" fill="#5DC1D8"/>
<path d="M277.867 161.276H244.024C243.037 161.276 242.09 160.895 241.391 160.217C240.694 159.539 240.301 158.619 240.301 157.66C240.301 156.701 240.694 155.781 241.391 155.103C242.09 154.425 243.037 154.045 244.024 154.045H277.867C278.855 154.045 279.802 154.425 280.5 155.103C281.198 155.781 281.591 156.701 281.591 157.66C281.591 158.619 281.198 159.539 280.5 160.217C279.802 160.895 278.855 161.276 277.867 161.276Z" fill="#5DC1D8"/>
<path d="M277.867 172.426H244.024C243.037 172.426 242.09 172.045 241.391 171.367C240.694 170.689 240.301 169.77 240.301 168.81C240.301 167.852 240.694 166.933 241.391 166.255C242.09 165.577 243.037 165.195 244.024 165.195H277.867C278.855 165.195 279.802 165.577 280.5 166.255C281.198 166.933 281.591 167.852 281.591 168.81C281.591 169.77 281.198 170.689 280.5 171.367C279.802 172.045 278.855 172.426 277.867 172.426Z" fill="#5DC1D8"/>
<path d="M293.624 134.376C293.624 135.015 293.363 135.628 292.898 136.08C292.432 136.532 291.801 136.786 291.142 136.786H230.75C230.091 136.786 229.459 136.532 228.994 136.08C228.529 135.628 228.268 135.015 228.268 134.376V114.495C228.268 113.856 228.529 113.243 228.994 112.791C229.459 112.339 230.091 112.084 230.75 112.084H291.142C291.801 112.084 292.432 112.339 292.898 112.791C293.363 113.243 293.624 113.856 293.624 114.495V134.376Z" fill="#C3DDF4"/>
<path d="M238.117 134.376V114.495C238.117 113.856 238.378 113.243 238.844 112.791C239.31 112.339 239.941 112.084 240.599 112.084H230.75C230.091 112.084 229.459 112.339 228.994 112.791C228.529 113.243 228.268 113.856 228.268 114.495V134.376C228.268 135.015 228.529 135.628 228.994 136.08C229.459 136.532 230.091 136.786 230.75 136.786H240.599C239.941 136.786 239.31 136.532 238.844 136.08C238.378 135.628 238.117 135.015 238.117 134.376Z" fill="#AEC1ED"/>
<path d="M284.689 190.856C284.689 191.496 284.427 192.108 283.961 192.56C283.496 193.012 282.864 193.267 282.207 193.267H239.68C239.022 193.267 238.39 193.012 237.926 192.56C237.46 192.108 237.198 191.496 237.198 190.856V182.704C237.198 182.066 237.46 181.452 237.926 181C238.39 180.548 239.022 180.294 239.68 180.294H282.207C282.864 180.294 283.496 180.548 283.961 181C284.427 181.452 284.689 182.066 284.689 182.704V190.856Z" fill="#C3DDF4"/>
<path d="M247.053 190.856V182.704C247.053 182.066 247.314 181.452 247.78 181C248.245 180.548 248.876 180.294 249.535 180.294H239.68C239.022 180.294 238.39 180.548 237.926 181C237.46 181.452 237.198 182.066 237.198 182.704V190.856C237.198 191.496 237.46 192.108 237.926 192.56C238.39 193.012 239.022 193.267 239.68 193.267H249.535C248.876 193.267 248.245 193.012 247.78 192.56C247.314 192.108 247.053 191.496 247.053 190.856Z" fill="#AEC1ED"/>
</g>
</g>
<defs>
<filter id="filter0_d" x="-4.00003" y="0" width="369.988" height="248.972" filterUnits="userSpaceOnUse" color-interpolation-filters="sRGB">
<feFlood flood-opacity="0" result="BackgroundImageFix"/>
<feColorMatrix in="SourceAlpha" type="matrix" values="0 0 0 0 0 0 0 0 0 0 0 0 0 0 0 0 0 0 127 0" result="hardAlpha"/>
<feOffset dy="4"/>
<feGaussianBlur stdDeviation="2"/>
<feColorMatrix type="matrix" values="0 0 0 0 0 0 0 0 0 0 0 0 0 0 0 0 0 0 0.25 0"/>
<feBlend mode="normal" in2="BackgroundImageFix" result="effect1_dropShadow"/>
<feBlend mode="normal" in="SourceGraphic" in2="effect1_dropShadow" result="shape"/>
</filter>
<filter id="filter1_d" x="51.4485" y="21.9121" width="231.481" height="152.893" filterUnits="userSpaceOnUse" color-interpolation-filters="sRGB">
<feFlood flood-opacity="0" result="BackgroundImageFix"/>
<feColorMatrix in="SourceAlpha" type="matrix" values="0 0 0 0 0 0 0 0 0 0 0 0 0 0 0 0 0 0 127 0" result="hardAlpha"/>
<feOffset dy="4"/>
<feGaussianBlur stdDeviation="2"/>
<feColorMatrix type="matrix" values="0 0 0 0 0 0 0 0 0 0 0 0 0 0 0 0 0 0 0.25 0"/>
<feBlend mode="normal" in2="BackgroundImageFix" result="effect1_dropShadow"/>
<feBlend mode="normal" in="SourceGraphic" in2="effect1_dropShadow" result="shape"/>
</filter>
<filter id="filter2_d" x="208.257" y="89.3066" width="105.374" height="132.251" filterUnits="userSpaceOnUse" color-interpolation-filters="sRGB">
<feFlood flood-opacity="0" result="BackgroundImageFix"/>
<feColorMatrix in="SourceAlpha" type="matrix" values="0 0 0 0 0 0 0 0 0 0 0 0 0 0 0 0 0 0 127 0" result="hardAlpha"/>
<feOffset dy="4"/>
<feGaussianBlur stdDeviation="2"/>
<feColorMatrix type="matrix" values="0 0 0 0 0 0 0 0 0 0 0 0 0 0 0 0 0 0 0.25 0"/>
<feBlend mode="normal" in2="BackgroundImageFix" result="effect1_dropShadow"/>
<feBlend mode="normal" in="SourceGraphic" in2="effect1_dropShadow" result="shape"/>
</filter>
<linearGradient id="paint0_linear" x1="29.6565" y1="35.5388" x2="338.494" y2="176.559" gradientUnits="userSpaceOnUse">
<stop stop-color="#00AAFF"/>
<stop offset="1" stop-color="#51136C"/>
</linearGradient>
<clipPath id="clip0">
<rect width="362" height="241" fill="white"/>
</clipPath>
</defs>
</svg>
