<svg xmlns="http://www.w3.org/2000/svg" viewBox="0 0 158 158"><defs><style>.cls-1{fill:#f3a22a;}.cls-2{fill:#fff;}.cls-3{fill:#044564;}.cls-4,.cls-5,.cls-6{fill:none;stroke:#044564;stroke-miterlimit:10;}.cls-4{stroke-linecap:round;}.cls-4,.cls-5{stroke-width:6px;}.cls-6{stroke-width:3px;}</style></defs><title>Recurso 2</title><g id="Capa_2" data-name="Capa 2"><g id="Capa_1-2" data-name="Capa 1"><circle class="cls-1" cx="79" cy="79" r="76"/><path class="cls-2" d="M79,6A73,73,0,1,1,6,79,73.09,73.09,0,0,1,79,6m0-6a79,79,0,1,0,79,79A79,79,0,0,0,79,0Z"/><path class="cls-3" d="M79,14.89A64.11,64.11,0,1,1,14.89,79,64.18,64.18,0,0,1,79,14.89m0-1A65.11,65.11,0,1,0,144.11,79,65.11,65.11,0,0,0,79,13.89Z"/><path class="cls-4" d="M51.57,40.8H86.66s10.4,0,13,13a27.35,27.35,0,0,1-.4,12.14C98,70.87,95.14,77.2,88.92,77.2H58.36"/><path class="cls-4" d="M59,77.2H96.1s11,0,13.74,13a25.8,25.8,0,0,1-.42,12.13c-1.34,4.93-4.35,11.26-10.93,11.26H51.57"/><line class="cls-5" x1="58.25" y1="40.8" x2="58.25" y2="113.6"/><line class="cls-6" x1="60.07" y1="31.09" x2="60.07" y2="40.8"/><line class="cls-6" x1="80.7" y1="31.09" x2="80.7" y2="40.8"/><line class="cls-6" x1="60.07" y1="124.72" x2="60.07" y2="113.6"/><line class="cls-6" x1="80.7" y1="124.72" x2="80.7" y2="113.6"/></g></g></svg>