<svg xmlns="http://www.w3.org/2000/svg" viewBox="0 0 158 158"><defs><style>.cls-1{fill:#399;}.cls-2{fill:#fff;}</style></defs><title>Recurso 6</title><g id="Capa_2" data-name="Capa 2"><g id="Capa_1-2" data-name="Capa 1"><circle class="cls-1" cx="79" cy="79" r="76"/><path class="cls-2" d="M79,6A73,73,0,1,1,6,79,73.09,73.09,0,0,1,79,6m0-6a79,79,0,1,0,79,79A79,79,0,0,0,79,0Z"/><path class="cls-2" d="M39.31,50.55H59.87c13.2,0,22.91,3.58,22.91,14a12.8,12.8,0,0,1-8.92,12.32v.35C81,78.67,86.2,83.05,86.2,90.75c0,11.38-10.54,16.7-24.68,16.7H39.31ZM58.84,74c9,0,12.78-3.1,12.78-8,0-5.5-4.21-7.59-12.54-7.59H50.71V74Zm1.5,25.55c9.43,0,14.7-3,14.7-9.4,0-6-5.11-8.6-14.7-8.6H50.71v18Z"/><path class="cls-2" d="M97.63,96.54c.8,3.06,3.21,4.82,7.12,4.82s5.51-1.56,5.51-4-1.5-3.61-7-4.94c-10.68-2.62-12.57-5.91-12.57-10.68,0-5,3.55-10.11,13.35-10.11s13.4,5.48,13.75,10.16h-7.9c-.37-1.58-1.49-4.2-6.21-4.2-3.69,0-4.84,1.69-4.84,3.47,0,2,1.17,3,7,4.32,11.06,2.59,12.83,6.35,12.83,11.38,0,5.78-4.46,10.67-14.24,10.67s-14.18-4.83-15-10.91Z"/></g></g></svg>