<svg width="304" height="145" viewBox="0 0 304 145" fill="none" xmlns="http://www.w3.org/2000/svg">
<path d="M298.693 144.881C298.808 144.859 298.919 144.83 299.032 144.803C299.128 144.78 299.224 144.761 299.318 144.734C299.428 144.702 299.535 144.663 299.643 144.627C299.738 144.595 299.833 144.566 299.927 144.529C300.029 144.489 300.126 144.443 300.225 144.399C300.32 144.356 300.418 144.316 300.512 144.268C300.606 144.221 300.695 144.167 300.786 144.116C300.88 144.063 300.975 144.013 301.067 143.955C301.164 143.894 301.255 143.826 301.349 143.76C301.428 143.705 301.509 143.653 301.586 143.593C301.729 143.483 301.864 143.366 301.996 143.245C302.02 143.223 302.045 143.205 302.069 143.183C302.093 143.16 302.114 143.134 302.138 143.11C302.265 142.988 302.388 142.862 302.504 142.73C302.572 142.652 302.63 142.571 302.694 142.491C302.759 142.408 302.827 142.328 302.888 142.242C302.953 142.15 303.01 142.055 303.07 141.96C303.12 141.881 303.174 141.803 303.22 141.721C303.275 141.626 303.321 141.528 303.369 141.431C303.412 141.345 303.458 141.26 303.497 141.171C303.539 141.076 303.573 140.98 303.61 140.883C303.646 140.788 303.684 140.695 303.715 140.599C303.747 140.501 303.77 140.402 303.796 140.303C303.822 140.205 303.851 140.109 303.872 140.011C303.896 139.894 303.911 139.777 303.929 139.659C303.941 139.577 303.958 139.495 303.967 139.411C303.989 139.205 304 138.999 304 138.793V6.20319C304 2.77655 301.049 0 297.407 0H89.736C89.678 0 89.6217 0.00661219 89.5637 0.00826638C89.438 0.0115747 89.3132 0.0165399 89.1883 0.026465C89.089 0.0339089 88.9906 0.0446632 88.8921 0.0570696C88.7796 0.070303 88.6679 0.0860167 88.5563 0.10504C88.4517 0.122409 88.348 0.143084 88.2451 0.165416C88.1405 0.188574 88.0359 0.21339 87.9322 0.241511C87.8294 0.268805 87.7283 0.298576 87.6281 0.330005C87.5252 0.363089 87.4224 0.397832 87.3213 0.435878C87.2255 0.471443 87.1314 0.50783 87.0382 0.547531C86.9345 0.591367 86.8317 0.638516 86.7297 0.687315C86.6427 0.729496 86.5574 0.772503 86.473 0.817993C86.371 0.872581 86.2708 0.930478 86.1715 0.990028C86.0897 1.03965 86.0098 1.09093 85.9306 1.14304C85.8375 1.20507 85.7452 1.26958 85.6546 1.33741C85.572 1.39944 85.4911 1.46313 85.4111 1.52847C85.332 1.59381 85.2538 1.65914 85.1773 1.72862C85.0903 1.80719 85.0068 1.88907 84.9242 1.97178C84.8828 2.01314 84.8389 2.04953 84.7993 2.09172C84.7756 2.11653 84.7571 2.14382 84.7343 2.16864C84.6516 2.25879 84.5743 2.35308 84.4969 2.44819C84.4407 2.51767 84.3827 2.58714 84.3299 2.65827C84.2614 2.75091 84.1981 2.84602 84.1348 2.94197C84.0829 3.02054 84.0293 3.09828 83.9818 3.17851C83.9265 3.27115 83.8781 3.36626 83.828 3.46138C83.7823 3.54822 83.7348 3.63507 83.6935 3.72357C83.6504 3.81703 83.6126 3.9138 83.5748 4.00892C83.537 4.10238 83.4984 4.19501 83.4658 4.2893C83.4333 4.38441 83.4069 4.48118 83.3788 4.57795C83.3507 4.6772 83.3208 4.77563 83.2971 4.87571C83.2751 4.96917 83.2601 5.06428 83.2426 5.15857C83.2232 5.2661 83.2039 5.37362 83.1898 5.48114C83.1784 5.57047 83.1731 5.66144 83.1661 5.75242C83.1573 5.86821 83.1494 5.98401 83.1476 6.10063C83.1467 6.13454 83.1424 6.16763 83.1424 6.20154V44.4562C83.1424 47.8828 86.0933 50.6594 89.7351 50.6594C93.3769 50.6594 96.3278 47.8828 96.3278 44.4562V19.9784L154.943 68.8074C154.637 69.0101 154.342 69.2342 154.068 69.4915L96.327 123.821V83.0549C96.327 79.6283 93.376 76.8517 89.7342 76.8517C86.0924 76.8517 83.1415 79.6283 83.1415 83.0549V90.6344H49.079C45.4372 90.6344 42.4863 93.411 42.4863 96.8376C42.4863 100.264 45.4372 103.041 49.079 103.041H83.1415V138.797C83.1415 142.223 86.0924 145 89.7342 145H297.406C297.623 145 297.84 144.989 298.056 144.969C298.157 144.96 298.255 144.942 298.354 144.929C298.468 144.914 298.581 144.902 298.693 144.881ZM290.814 123.821L233.072 69.4923C233.035 69.4575 232.995 69.4286 232.958 69.3955L276.367 34.7428C279.143 32.5262 279.484 28.6124 277.128 25.9996C274.774 23.3885 270.614 23.0659 267.836 25.2834L193.662 84.4949L107.127 12.4072H290.814V123.821ZM163.393 78.2661C163.863 77.8236 164.244 77.3306 164.542 76.8063L189.2 97.3471C190.447 98.3851 192.008 98.9062 193.571 98.9062C195.088 98.9062 196.604 98.4157 197.837 97.4331L222.966 77.3728C223.194 77.6871 223.452 77.9873 223.748 78.2661L281.489 132.595H105.652L163.393 78.2661Z" fill="white"/>
<path d="M6.59274 70.6469H117.937C121.579 70.6469 124.53 67.8704 124.53 64.4437C124.53 61.0171 121.579 58.2405 117.937 58.2405H6.59274C2.95091 58.2405 0 61.0171 0 64.4437C0 67.8704 2.95091 70.6469 6.59274 70.6469Z" fill="white"/>
<path d="M18.13 36.4624H68.125C71.7668 36.4624 74.7177 33.6858 74.7177 30.2592C74.7177 26.8325 71.7668 24.056 68.125 24.056H18.13C14.4882 24.056 11.5373 26.8325 11.5373 30.2592C11.5373 33.6858 14.4882 36.4624 18.13 36.4624Z" fill="white"/>
<path d="M54.9395 116.827H6.59274C2.95091 116.827 0 119.603 0 123.03C0 126.457 2.95091 129.233 6.59274 129.233H54.9395C58.5813 129.233 61.5322 126.457 61.5322 123.03C61.5322 119.603 58.5813 116.827 54.9395 116.827Z" fill="white"/>
</svg>
