<svg xmlns="http://www.w3.org/2000/svg" viewBox="0 0 158 158"><defs><style>.cls-1{fill:#1c74bc;}.cls-2{fill:#fff;}</style></defs><title>Recurso 8</title><g id="Capa_2" data-name="Capa 2"><g id="Capa_1-2" data-name="Capa 1"><circle class="cls-1" cx="79" cy="79" r="76" transform="translate(-32.72 79) rotate(-45)"/><path class="cls-2" d="M79,6A73,73,0,1,1,6,79,73.09,73.09,0,0,1,79,6m0-6a79,79,0,1,0,79,79A79,79,0,0,0,79,0Z"/><polygon class="cls-2" points="66.76 85.33 32.32 85.33 37.28 72.11 71.59 72.11 66.76 85.33"/><path class="cls-2" d="M48.8,64.77l4.38-14.11h63.17a9.55,9.55,0,0,1,5.91,1.94c2.37,1.86,4.52,5.43,2.79,12.17-2.42,9.39-6.33,21-8.15,26.3a24.57,24.57,0,0,1-7.08,10.63,20.69,20.69,0,0,1-9.17,4.62c-10.68,2.29-66.15,0-66.15,0L40,92.41H96.45l9-27.64Z"/></g></g></svg>