<svg xmlns="http://www.w3.org/2000/svg" viewBox="0 0 158 158"><defs><style>.cls-1{fill:#009e30;}.cls-2,.cls-3,.cls-4{fill:#fff;}.cls-3,.cls-4{stroke:#fff;stroke-miterlimit:10;}.cls-4{stroke-width:7px;}</style></defs><title>Recurso 5</title><g id="Capa_2" data-name="Capa 2"><g id="Capa_1-2" data-name="Capa 1"><circle class="cls-1" cx="79" cy="79" r="76"/><path class="cls-2" d="M79,6A73,73,0,1,1,6,79,73.09,73.09,0,0,1,79,6m0-6a79,79,0,1,0,79,79A79,79,0,0,0,79,0Z"/><path class="cls-3" d="M45.69,110.54,54.89,98c7.49,5.84,14.73,9.41,23.28,9.41,9.2,0,13.53-4.33,13.53-10.1,0-7.07-9.13-10.23-18.13-13.66C62.51,79.46,49.88,73.11,49.88,59c0-14.63,11.81-25.2,30.69-25.2,11.75,0,21.16,4.77,28,10.09L99.53,56.08c-5.91-4.33-11.85-7.35-18.48-7.35-8.48,0-12.49,4.05-12.49,9.34,0,6.66,8.51,9.2,17.65,12.57,11.4,4.25,24.17,9.75,24.17,25.48,0,14.49-11.47,26.16-32.76,26.16C66.08,122.28,53.93,117.34,45.69,110.54Z"/><line class="cls-4" x1="79" y1="20.7" x2="79" y2="137.3"/></g></g></svg>