<svg xmlns="http://www.w3.org/2000/svg" viewBox="0 0 158 158"><defs><style>.cls-1{fill:#ccc;}.cls-2{fill:#fff;}.cls-3{fill:#8a92af;}.cls-4{fill:#636890;}.cls-5{fill:#454a74;}.cls-6{fill:#8992b1;}</style></defs><title>Recurso 9</title><g id="Capa_2" data-name="Capa 2"><g id="Capa_1-2" data-name="Capa 1"><circle class="cls-1" cx="79" cy="79" r="76"/><path class="cls-2" d="M79,6A73,73,0,1,1,6,79,73.09,73.09,0,0,1,79,6m0-6a79,79,0,1,0,79,79A79,79,0,0,0,79,0Z"/><polygon class="cls-3" points="39.68 80.49 79 62.16 79 14.06 39.68 80.49"/><polygon class="cls-4" points="118.32 80.49 79 62.16 79 14.06 118.32 80.49"/><polygon class="cls-4" points="39.68 80.49 79 62.13 79 103.37 39.68 80.49"/><polygon class="cls-5" points="118.32 80.49 79 62.13 79 103.37 118.32 80.49"/><polygon class="cls-6" points="39.19 88.15 79 143.94 79 111.06 39.19 88.15"/><polygon class="cls-4" points="118.81 88.15 79 143.94 79 111.06 118.81 88.15"/></g></g></svg>