<svg width="257" height="258" viewBox="0 0 257 258" fill="none" xmlns="http://www.w3.org/2000/svg">
<g clip-path="url(#clip0)">
<path d="M80.3125 0C35.9569 0 0 36.0968 0 80.625C0 125.153 35.9569 161.25 80.3125 161.25C81.7335 161.253 83.0973 160.688 84.1032 159.68L159.061 84.4305C160.065 83.4207 160.628 82.0516 160.625 80.625C160.578 36.1165 124.649 0.0473672 80.3125 0Z" fill="#FFA000"/>
<path d="M165.979 75.2498C115.71 75.2498 74.9587 116.16 74.9587 166.625C74.9587 217.089 115.71 258 165.979 258C216.249 258 257 217.09 257 166.625C256.941 116.185 216.224 75.3093 165.979 75.2498Z" fill="#FFC107"/>
<path d="M80.3125 236.5C58.1939 235.336 39.5017 219.642 34.4485 197.993L45.7781 203.68C48.4244 205.007 51.6414 203.929 52.9636 201.272C54.2852 198.616 53.2115 195.386 50.5647 194.059L29.1479 183.309C28.9978 183.234 28.8267 183.244 28.666 183.18C27.9834 182.918 27.2545 182.798 26.5242 182.825C26.353 182.816 26.1814 182.816 26.0102 182.825C25.843 182.874 25.6789 182.932 25.5178 182.997C24.1464 183.321 22.9573 184.175 22.2089 185.373C22.1231 185.513 21.984 185.609 21.9092 185.76L11.2011 207.26C9.87893 209.915 10.9511 213.144 13.5959 214.472C13.5974 214.472 13.5984 214.473 13.5999 214.474C14.3669 214.845 15.2117 215.026 16.063 215C18.0929 215.004 19.9506 213.855 20.8602 212.033L25.0148 203.691C32.1009 228.704 54.4263 246.29 80.3125 247.25C83.2695 247.25 85.6668 244.844 85.6668 241.875C85.6668 238.907 83.2695 236.5 80.3125 236.5Z" fill="white"/>
<path d="M243.336 43.5481C240.692 42.2208 237.476 43.2971 236.153 45.9522C236.152 45.9537 236.151 45.9547 236.151 45.9562L231.996 54.2984C224.905 29.286 202.575 11.7037 176.688 10.7498C173.731 10.7498 171.333 13.1565 171.333 16.125C171.333 19.0935 173.731 21.5002 176.688 21.5002C198.796 22.6662 217.48 38.3488 222.54 59.985L211.211 54.2984C208.565 52.9716 205.348 54.0495 204.025 56.7066C202.704 59.3632 203.777 62.5927 206.424 63.92L227.841 74.6698C227.916 74.6698 227.991 74.6698 228.066 74.6698C228.737 75.0175 229.475 75.2156 230.229 75.2503C231.204 75.2594 232.162 74.9913 232.992 74.4763L233.088 74.3902C233.795 73.92 234.379 73.2861 234.791 72.5413C234.855 72.434 234.973 72.3907 235.026 72.2833L245.734 50.7832C247.066 48.1326 246.005 44.9006 243.365 43.5632C243.356 43.5582 243.346 43.5531 243.336 43.5481Z" fill="white"/>
<path d="M80.3125 129C59.3027 129 42.8332 117.175 42.8332 102.125V59.1253C42.8332 44.0752 59.3027 32.25 80.3125 32.25C101.322 32.25 117.792 44.0752 117.792 59.1248C117.792 62.0933 115.395 64.5 112.438 64.5C109.48 64.5 107.083 62.0933 107.083 59.1248C107.083 50.3851 94.822 42.9998 80.3125 42.9998C65.803 42.9998 53.5418 50.3851 53.5418 59.1248V102.125C53.5418 110.864 65.803 118.25 80.3125 118.25C83.2695 118.25 85.6668 120.656 85.6668 123.625C85.6668 126.593 83.2695 129 80.3125 129Z" fill="#ECEFF1"/>
<path d="M91.0207 75.2498H37.4793C34.5223 75.2498 32.125 72.8432 32.125 69.8747C32.125 66.9062 34.5223 64.5 37.4793 64.5H91.0212C93.9782 64.5 96.3755 66.9067 96.3755 69.8752C96.3755 72.8437 93.9777 75.2498 91.0207 75.2498Z" fill="#ECEFF1"/>
<path d="M91.0207 96.75H37.4793C34.5223 96.75 32.125 94.3433 32.125 91.3748C32.125 88.4063 34.5223 85.9997 37.4793 85.9997H91.0212C93.9782 85.9997 96.3755 88.4063 96.3755 91.3748C96.375 94.3433 93.9777 96.75 91.0207 96.75Z" fill="#ECEFF1"/>
<path d="M173.174 117.525V104.812H159.119V117.525C143.35 119.087 131.01 130.782 131.01 145.1C131.01 160.477 145.198 172.991 162.633 172.991H169.66C179.351 172.991 187.229 179.939 187.229 188.486C187.229 197.033 179.351 203.981 169.66 203.981H162.633C152.942 203.981 145.064 197.033 145.064 188.486V185.387H131.01V188.486C131.01 202.804 143.35 214.499 159.119 216.061V228.773H173.174V216.061C188.943 214.499 201.283 202.804 201.283 188.486C201.283 173.109 187.095 160.595 169.66 160.595H162.633C152.942 160.595 145.064 153.647 145.064 145.1C145.064 136.553 152.942 129.605 162.633 129.605H169.66C179.351 129.605 187.229 136.553 187.229 145.1V148.199H201.283V145.1C201.283 130.782 188.943 119.087 173.174 117.525Z" fill="white"/>
</g>
<defs>
<clipPath id="clip0">
<rect width="257" height="258" fill="white"/>
</clipPath>
</defs>
</svg>
