<svg xmlns="http://www.w3.org/2000/svg" viewBox="0 0 158 158"><defs><style>.cls-1{fill:#f3a22a;}.cls-2{fill:#fff;}.cls-3{fill:#2d2d2d;}.cls-4{fill:none;stroke:#fff;stroke-linecap:round;stroke-miterlimit:10;stroke-width:2px;}.cls-5{fill:#399;}</style></defs><title>Recurso 7</title><g id="Capa_2" data-name="Capa 2"><g id="Capa_1-2" data-name="Capa 1"><circle class="cls-1" cx="79" cy="79" r="76"/><path class="cls-2" d="M79,6A73,73,0,1,1,6,79,73.09,73.09,0,0,1,79,6m0-6a79,79,0,1,0,79,79A79,79,0,0,0,79,0Z"/><path class="cls-3" d="M60.38,23.48H95.74A13.56,13.56,0,0,1,109.31,37v88.51a11.52,11.52,0,0,1-11.52,11.52H58.68a12.37,12.37,0,0,1-12.37-12.37V37.56A14.08,14.08,0,0,1,60.38,23.48Z"/><circle class="cls-2" cx="78.05" cy="126.84" r="5.43"/><rect class="cls-2" x="51.87" y="33.86" width="52.12" height="83.49" rx="3.81"/><line class="cls-4" x1="67.81" y1="28.79" x2="88.05" y2="28.79"/><path class="cls-5" d="M95.54,100.61A25.44,25.44,0,1,1,121,75.17,25.47,25.47,0,0,1,95.54,100.61Z"/><path class="cls-2" d="M95.54,50.73A24.44,24.44,0,1,1,71.1,75.17,24.47,24.47,0,0,1,95.54,50.73m0-2A26.44,26.44,0,1,0,122,75.17,26.43,26.43,0,0,0,95.54,48.73Z"/><path class="cls-2" d="M79.86,63.93H88c5.21,0,9,1.41,9,5.54a5,5,0,0,1-3.53,4.86v.14c2.81.57,4.88,2.3,4.88,5.34,0,4.49-4.16,6.59-9.75,6.59H79.86Zm7.71,9.28c3.54,0,5.05-1.23,5.05-3.18,0-2.17-1.66-3-5-3H84.36v6.18Zm.59,10.09c3.73,0,5.81-1.18,5.81-3.71,0-2.37-2-3.4-5.81-3.4h-3.8V83.3Z"/><path class="cls-2" d="M102.89,82.09A2.59,2.59,0,0,0,105.71,84c1.58,0,2.18-.62,2.18-1.58s-.6-1.42-2.75-1.94c-4.22-1-5-2.34-5-4.22s1.4-4,5.28-4,5.29,2.17,5.43,4h-3.12c-.15-.63-.59-1.66-2.46-1.66-1.45,0-1.91.66-1.91,1.37s.47,1.16,2.75,1.7c4.37,1,5.07,2.51,5.07,4.5,0,2.28-1.76,4.21-5.62,4.21s-5.6-1.9-5.92-4.31Z"/></g></g></svg>