<svg xmlns="http://www.w3.org/2000/svg" viewBox="0 0 158 158"><defs><style>.cls-1{fill:#dcc857;}.cls-2{fill:#fff;}.cls-3{fill:#2d343c;}</style></defs><title>Recurso 3</title><g id="Capa_2" data-name="Capa 2"><g id="Capa_1-2" data-name="Capa 1"><circle class="cls-1" cx="79" cy="79" r="76"/><path class="cls-2" d="M79,6A73,73,0,1,1,6,79,73.09,73.09,0,0,1,79,6m0-6a79,79,0,1,0,79,79A79,79,0,0,0,79,0Z"/><polygon class="cls-3" points="44.64 98.77 94.76 97.88 94.76 105.66 44.64 104.77 44.64 98.77"/><path class="cls-3" d="M44.64,80.31c.18-.33.36-.38.53-.38l.54,0,1.06,0,2.13-.07,4.26-.14,8.53-.27,17-.53,2.13-.06,1.07,0h1c1.25,0,2.55-.12,3.83-.26A39.5,39.5,0,0,0,94.19,77a22.51,22.51,0,0,0,6.27-2.91,11.45,11.45,0,0,0,3.82-4.33h0l.81-1.15c-.09.1,0,0,0,0l.1-.13a2.79,2.79,0,0,0,.24-.31c.15-.22.32-.47.47-.73a13.36,13.36,0,0,0,.86-1.64,16.06,16.06,0,0,0,1.1-3.65,18.68,18.68,0,0,0-.32-7.92A22.1,22.1,0,0,0,98.3,41.05a21.54,21.54,0,0,0-15.77-3.4,16.21,16.21,0,0,0-12.26,9.19,29.63,29.63,0,0,0-2.62,8.41c-.17.74-.21,1.53-.33,2.29s-.21,1.54-.24,2.31l-.16,2.32,0,2.53L66.62,85l-.27,20.27-.13,10.13-.07,5.07,0,2.54,0,1.26v.64a1.61,1.61,0,0,1,0,.31c0,.11-.17.21-.5.32h-6c-.34-.11-.46-.21-.5-.32s0-.21,0-.31v-.64L59,123l0-2.54-.07-5.07-.13-10.15L58.54,84.9l-.27-20.3,0-2.55.11-2.75c0-.91.12-1.82.21-2.73s.15-1.82.33-2.74a38.94,38.94,0,0,1,3.19-11,26,26,0,0,1,7.51-9.57,26.36,26.36,0,0,1,11.14-5,31.3,31.3,0,0,1,23,4.42,32.28,32.28,0,0,1,13.79,19,29.29,29.29,0,0,1,.65,12.18A26.38,26.38,0,0,1,116.45,70,24.1,24.1,0,0,1,115,72.86c-.27.48-.57.94-.89,1.41-.17.24-.33.47-.52.71l-.29.38c-.13.15-.18.23-.42.48l.82-1.15h0a21.9,21.9,0,0,1-7.64,8,32.36,32.36,0,0,1-9.26,3.83,49.32,49.32,0,0,1-9.31,1.35c-1.55.08-3.08.1-4.67,0l-.61,0h-.51l-1.06,0-2.11-.06L61.6,87.21l-8.48-.27-4.24-.14-2.12-.06-1.06,0-.53,0c-.17,0-.35-.05-.53-.37Z"/></g></g></svg>