<svg width="181" height="215" viewBox="0 0 181 215" fill="none" xmlns="http://www.w3.org/2000/svg">
<path d="M179.814 55.1706C179.704 49.3856 179.599 43.9206 179.599 38.6336C179.599 34.4916 176.242 31.1336 172.099 31.1336C140.024 31.1336 115.603 21.9156 95.2472 2.12363C92.3352 -0.708375 87.7012 -0.707375 84.7902 2.12363C64.4362 21.9156 40.0192 31.1336 7.94618 31.1336C3.80418 31.1336 0.446175 34.4916 0.446175 38.6336C0.446175 43.9216 0.342175 49.3886 0.231175 55.1746C-0.796825 109.011 -2.20482 182.742 87.5622 213.857C88.3582 214.133 89.1882 214.271 90.0182 214.271C90.8482 214.271 91.6792 214.133 92.4742 213.857C182.248 182.741 180.842 109.008 179.814 55.1706ZM90.0192 198.812C13.0322 170.845 14.1962 109.58 15.2292 55.4606C15.2912 52.2126 15.3512 49.0646 15.3932 45.9786C45.4332 44.7106 69.4552 35.6076 90.0192 17.6936C110.585 35.6076 134.611 44.7116 164.653 45.9786C164.695 49.0636 164.755 52.2096 164.817 55.4556C165.849 109.577 167.012 170.844 90.0192 198.812Z" fill="white"/>
<path d="M117.508 96.1398H114.401V84.5038C114.401 77.6087 108.003 72 100.137 72H79.8599C71.9942 72 65.5962 77.6087 65.5962 84.5038V96.1398H62.4918C58.3545 96.1398 55 99.0804 55 102.707V135.433C55 139.059 58.3545 142 62.4918 142H117.508C121.645 142 125 139.059 125 135.433V102.707C125 99.0804 121.645 96.1398 117.508 96.1398ZM95.5091 121.922V128.759C95.5091 131.426 93.0424 133.589 89.9999 133.589C86.9576 133.589 84.4907 131.426 84.4907 128.759V121.922C82.2649 120.451 80.8057 118.136 80.8057 115.503C80.8057 111.052 84.9199 107.443 90.0001 107.443C95.0791 107.443 99.1947 111.052 99.1947 115.503C99.1945 118.136 97.7353 120.451 95.5091 121.922ZM103.383 96.1398H76.6145V84.5038C76.6145 82.9345 78.0697 81.6587 79.8599 81.6587H100.137C101.928 81.6587 103.383 82.9343 103.383 84.5038V96.1398Z" fill="white"/>
</svg>
