<svg width="447" height="296" viewBox="0 0 447 296" fill="none" xmlns="http://www.w3.org/2000/svg">
<path d="M210.607 115.113L255.683 148L210.607 180.887V115.113Z" fill="black" stroke="black" stroke-width="10"/>
<path d="M210.607 115.113L255.683 148L210.607 180.887V115.113Z" fill="black" stroke="white" stroke-width="10"/>
<rect x="182.835" y="138.791" width="24.0742" height="18.4178" fill="white"/>
<rect x="182.59" y="144.183" width="32.7283" height="8.48137" fill="black"/>
<path d="M84.7153 100.959V93.4044H77.2978V100.959C68.9754 101.888 62.4629 108.839 62.4629 117.348C62.4629 126.486 69.9508 133.924 79.1522 133.924H82.8609C87.9752 133.924 92.1327 138.053 92.1327 143.132C92.1327 148.212 87.9752 152.341 82.8609 152.341H79.1522C74.0378 152.341 69.8803 148.212 69.8803 143.132V141.291H62.4629V143.132C62.4629 151.641 68.9754 158.592 77.2978 159.521V167.076H84.7153V159.521C93.0377 158.592 99.5502 151.641 99.5502 143.132C99.5502 133.994 92.0623 126.556 82.8609 126.556H79.1522C74.0378 126.556 69.8803 122.427 69.8803 117.348C69.8803 112.268 74.0378 108.139 79.1522 108.139H82.8609C87.9752 108.139 92.1327 112.268 92.1327 117.348V119.189H99.5502V117.348C99.5502 108.839 93.0377 101.888 84.7153 100.959Z" fill="white"/>
<rect x="7.5" y="7.5" width="147.664" height="281" rx="27.5" stroke="white" stroke-width="15"/>
<path d="M45.5459 9.20889H117.118C117.118 19.3808 108.872 27.6267 98.7001 27.6267H63.9637C53.7918 27.6267 45.5459 19.3808 45.5459 9.20889Z" fill="white"/>
<ellipse cx="107.358" cy="18.4178" rx="3.25327" ry="3.28889" fill="black"/>
<ellipse cx="57.2576" cy="18.4178" rx="3.25327" ry="3.28889" fill="black"/>
<rect x="72.8734" y="17.1022" width="19.5197" height="3.28889" rx="1.64444" fill="black"/>
<path d="M125.131 130.24C125.131 154.776 105.47 174.573 81.3319 174.573C57.1935 174.573 37.5327 154.776 37.5327 130.24C37.5327 105.704 57.1935 85.9067 81.3319 85.9067C105.47 85.9067 125.131 105.704 125.131 130.24Z" stroke="white" stroke-width="10"/>
<line x1="40.5873" y1="197.78" x2="122.079" y2="197.78" stroke="white" stroke-width="7" stroke-linecap="round"/>
<line x1="40.5873" y1="212.251" x2="122.079" y2="212.251" stroke="white" stroke-width="7" stroke-linecap="round"/>
<line x1="40.5873" y1="226.722" x2="122.079" y2="226.722" stroke="white" stroke-width="7" stroke-linecap="round"/>
<path d="M369.052 100.959V93.4044H361.634V100.959C353.312 101.888 346.799 108.839 346.799 117.348C346.799 126.486 354.287 133.924 363.488 133.924H367.197C372.312 133.924 376.469 138.053 376.469 143.132C376.469 148.212 372.312 152.341 367.197 152.341H363.488C358.374 152.341 354.217 148.212 354.217 143.132V141.291H346.799V143.132C346.799 151.641 353.312 158.592 361.634 159.521V167.076H369.052V159.521C377.374 158.592 383.886 151.641 383.886 143.132C383.886 133.994 376.399 126.556 367.197 126.556H363.488C358.374 126.556 354.217 122.427 354.217 117.348C354.217 112.268 358.374 108.139 363.488 108.139H367.197C372.312 108.139 376.469 112.268 376.469 117.348V119.189H383.886V117.348C383.886 108.839 377.374 101.888 369.052 100.959Z" fill="white"/>
<rect x="291.836" y="7.5" width="147.664" height="281" rx="27.5" stroke="white" stroke-width="15"/>
<path d="M329.882 9.20889H401.454C401.454 19.3808 393.208 27.6267 383.036 27.6267H348.3C338.128 27.6267 329.882 19.3808 329.882 9.20889Z" fill="white"/>
<ellipse cx="391.694" cy="18.4178" rx="3.25327" ry="3.28889" fill="black"/>
<ellipse cx="341.594" cy="18.4178" rx="3.25327" ry="3.28889" fill="black"/>
<rect x="357.21" y="17.1022" width="19.5197" height="3.28889" rx="1.64444" fill="black"/>
<path d="M409.467 130.24C409.467 154.776 389.807 174.573 365.668 174.573C341.53 174.573 321.869 154.776 321.869 130.24C321.869 105.704 341.53 85.9067 365.668 85.9067C389.807 85.9067 409.467 105.704 409.467 130.24Z" stroke="white" stroke-width="10"/>
<line x1="324.924" y1="197.78" x2="406.415" y2="197.78" stroke="white" stroke-width="7" stroke-linecap="round"/>
<line x1="324.924" y1="212.251" x2="406.415" y2="212.251" stroke="white" stroke-width="7" stroke-linecap="round"/>
<line x1="324.924" y1="226.722" x2="406.415" y2="226.722" stroke="white" stroke-width="7" stroke-linecap="round"/>
</svg>
