<svg xmlns="http://www.w3.org/2000/svg" viewBox="0 0 158 158"><defs><style>.cls-1{fill:#27a17c;}.cls-2{fill:#fff;}</style></defs><title>Recurso 4</title><g id="Capa_2" data-name="Capa 2"><g id="Capa_1-2" data-name="Capa 1"><circle class="cls-1" cx="79" cy="79" r="76"/><path class="cls-2" d="M79,6A73,73,0,1,1,6,79,73.09,73.09,0,0,1,79,6m0-6a79,79,0,1,0,79,79A79,79,0,0,0,79,0Z"/><rect class="cls-2" x="70.04" y="84.74" width="17.36" height="33.42"/><polygon class="cls-2" points="111.1 39.84 46.09 39.84 46.09 56.16 70.11 56.16 70.11 79.52 87.47 79.52 87.47 56.16 111.1 56.16 111.1 39.84"/><path class="cls-2" d="M123.75,76.54a4,4,0,0,1-.75,2.22,6.93,6.93,0,0,1-1.3,1.34,14.21,14.21,0,0,1-2.77,1.63,37,37,0,0,1-5.62,2A95.37,95.37,0,0,1,101.94,86q-5.72.78-11.46,1.14c-3.82.21-7.65.3-11.48.31a187.16,187.16,0,0,1-22.92-1.62,89.51,89.51,0,0,1-11.35-2.3,37.61,37.61,0,0,1-5.58-2,14,14,0,0,1-2.72-1.62,6.45,6.45,0,0,1-1.26-1.29,3.82,3.82,0,0,1-.7-2.1,3.73,3.73,0,0,1,.75-2.06,6.47,6.47,0,0,1,1.28-1.24,13.18,13.18,0,0,1,2.74-1.49A35.64,35.64,0,0,1,44.85,70a96,96,0,0,1,11.34-1.85A200,200,0,0,1,79,67c3.8,0,7.61.09,11.41.25s7.61.37,11.41.77A90.76,90.76,0,0,1,113.2,69.8a36.31,36.31,0,0,1,5.64,1.76,13.4,13.4,0,0,1,2.79,1.51A7.22,7.22,0,0,1,123,74.35,4,4,0,0,1,123.75,76.54Zm-3,0a1,1,0,0,0-.17-.44,3.77,3.77,0,0,0-.69-.71,10.36,10.36,0,0,0-2.15-1.28,33.61,33.61,0,0,0-5.14-1.84,93.07,93.07,0,0,0-11-2.34c-3.73-.55-7.48-1-11.25-1.25s-7.55-.37-11.33-.37a170.31,170.31,0,0,0-22.59,1.53,88.15,88.15,0,0,0-11,2.24,33.3,33.3,0,0,0-5.17,1.84,10.91,10.91,0,0,0-2.2,1.3,4.32,4.32,0,0,0-.74.75,1.28,1.28,0,0,0-.2.57,1.52,1.52,0,0,0,.25.54,4.38,4.38,0,0,0,.76.69A11.33,11.33,0,0,0,40.31,79a34.55,34.55,0,0,0,5.2,1.6,95.69,95.69,0,0,0,11,1.79,183.21,183.21,0,0,0,22.48,1c3.76,0,7.51-.1,11.26-.32s7.48-.45,11.2-.88a90.88,90.88,0,0,0,11-1.79,33.73,33.73,0,0,0,5.16-1.62,10.57,10.57,0,0,0,2.17-1.16,4.32,4.32,0,0,0,.72-.65A1.54,1.54,0,0,0,120.71,76.54Z"/></g></g></svg>