<svg width="332" height="175" viewBox="0 0 332 175" fill="none" xmlns="http://www.w3.org/2000/svg">
<path d="M245.538 28.45C230.598 28.45 216.559 34.6 205.982 45.75C195.406 56.9 189.619 71.75 189.619 87.5C189.619 103.3 195.453 118.1 205.982 129.25C216.559 140.4 230.598 146.55 245.538 146.55C260.478 146.55 274.517 140.4 285.093 129.25C295.67 118.1 301.456 103.25 301.456 87.5C301.456 71.7 295.622 56.9 285.093 45.75C274.517 34.6 260.478 28.45 245.538 28.45ZM245.538 31.8C274.659 31.8 298.231 56.75 298.231 87.5C298.231 118.25 274.611 143.2 245.538 143.2C216.464 143.2 192.845 118.25 192.845 87.5C192.845 56.75 216.417 31.8 245.538 31.8Z" fill="#EE101F"/>
<path d="M245.538 13.8999C236.147 13.8999 226.993 15.8499 218.409 19.6999C210.109 23.3999 202.662 28.6999 196.259 35.4499C189.857 42.1999 184.829 50.1 181.319 58.85C177.667 67.95 175.818 77.55 175.818 87.5C175.818 97.45 177.667 107.1 181.319 116.15C184.829 124.9 189.857 132.8 196.259 139.55C202.662 146.3 210.109 151.6 218.409 155.3C226.993 159.15 236.147 161.1 245.538 161.1C254.929 161.1 264.082 159.15 272.667 155.3C280.967 151.6 288.413 146.3 294.816 139.55C301.219 132.8 306.246 124.9 309.756 116.15C313.408 107.05 315.21 97.45 315.21 87.5C315.21 77.55 313.361 67.9 309.756 58.85C306.246 50.1 301.219 42.1999 294.816 35.4499C288.413 28.6999 280.967 23.3999 272.667 19.6999C264.082 15.8499 254.929 13.8999 245.538 13.8999ZM245.538 17.2499C282.247 17.2499 312.033 48.6999 312.033 87.5C312.033 126.3 282.247 157.7 245.538 157.7C208.828 157.7 179.043 126.3 179.043 87.5C179.043 48.6999 208.828 17.2499 245.538 17.2499Z" fill="#EE101F"/>
<path d="M245.538 0C234.345 0 223.483 2.3 213.286 6.9C203.421 11.3 194.552 17.6 186.963 25.65C179.375 33.7 173.399 43.05 169.225 53.45C164.909 64.25 162.727 75.7 162.727 87.5C162.727 99.3 164.909 110.75 169.225 121.55C173.399 131.95 179.375 141.35 186.963 149.35C194.552 157.4 203.421 163.7 213.286 168.1C223.483 172.65 234.345 175 245.538 175C256.731 175 267.592 172.7 277.789 168.1C287.654 163.7 296.523 157.4 304.112 149.35C311.701 141.3 317.677 131.95 321.85 121.55C326.166 110.75 328.348 99.3 328.348 87.5C328.348 75.7 326.166 64.25 321.85 53.45C317.677 43.05 311.701 33.65 304.112 25.65C296.523 17.6 287.654 11.3 277.789 6.9C267.592 2.3 256.731 0 245.538 0ZM245.538 3.4C289.504 3.4 325.17 41.05 325.17 87.5C325.17 133.95 289.504 171.6 245.538 171.6C201.571 171.6 165.905 133.95 165.905 87.5C165.905 41.05 201.571 3.4 245.538 3.4Z" fill="#EE101F"/>
<path d="M239.562 112.25L224.385 62.75H234.961L245.395 97.55H245.49L256.067 62.75H266.691L251.134 112.25H239.562Z" fill="#EE101F"/>
<path d="M29.9274 74.35C28.3149 72.2 25.1371 71.2 22.7183 71.2C19.92 71.2 16.0309 72.55 16.0309 76.1C16.0309 84.75 36.7571 79.2 36.7571 95.85C36.7571 106.45 28.6943 111.5 19.3983 111.5C13.612 111.5 8.53714 109.7 4.26857 105.5L11.3354 97.3C13.3749 100.1 16.6949 101.8 19.9674 101.8C23.1926 101.8 26.8446 100.2 26.8446 96.85C26.8446 88.1 5.73886 92.8 5.73886 76.95C5.73886 66.8 14.0863 61.5 22.908 61.5C27.9829 61.5 32.9154 62.9 36.7097 66.45L29.9274 74.35Z" fill="#EE101F"/>
<path d="M80.5337 61.5C94.5726 61.5 104.817 71.25 104.817 86.5C104.817 101.75 94.5726 111.5 80.5337 111.5C66.4949 111.5 56.2029 101.75 56.2029 86.5C56.2029 71.25 66.4474 61.5 80.5337 61.5ZM80.5337 101.8C88.976 101.8 94.5251 95.35 94.5251 86.5C94.5251 77.65 88.976 71.2 80.5337 71.2C72.0914 71.2 66.5423 77.65 66.5423 86.5C66.4949 95.35 72.044 101.8 80.5337 101.8Z" fill="#EE101F"/>
<path d="M124.263 62.7H134.175V110.3H124.263V62.7Z" fill="#EE101F"/>
<path d="M47.1914 111.5C49.025 111.5 50.5114 109.933 50.5114 108C50.5114 106.067 49.025 104.5 47.1914 104.5C45.3578 104.5 43.8714 106.067 43.8714 108C43.8714 109.933 45.3578 111.5 47.1914 111.5Z" fill="#EE101F"/>
<path d="M113.829 111.5C115.662 111.5 117.149 109.933 117.149 108C117.149 106.067 115.662 104.5 113.829 104.5C111.995 104.5 110.509 106.067 110.509 108C110.509 109.933 111.995 111.5 113.829 111.5Z" fill="#EE101F"/>
<path d="M144.61 111.5C146.443 111.5 147.93 109.933 147.93 108C147.93 106.067 146.443 104.5 144.61 104.5C142.776 104.5 141.29 106.067 141.29 108C141.29 109.933 142.776 111.5 144.61 111.5Z" fill="#EE101F"/>
</svg>
