<svg width="512" height="263" viewBox="0 0 512 263" fill="none" xmlns="http://www.w3.org/2000/svg">
<g clip-path="url(#clip0_1069_142)">
<path d="M316.78 16.55H110.88C80.38 16.55 52.66 29.03 32.57 49.12C12.47 69.21 0 96.93 0 127.44C0 157.94 12.47 185.66 32.57 205.75C52.66 225.85 80.38 238.32 110.88 238.32H304.13C325.67 253.75 352.03 262.86 380.39 262.86H380.57C416.71 262.86 449.59 248.07 473.4 224.26C497.2 200.45 512 167.59 512 131.43C512 95.28 497.22 62.4 473.37 38.63C449.53 14.8 416.67 0 380.57 0H380.39C357.37 0 335.67 6.02 316.78 16.55ZM387.4 113.72L387.83 113.81C388.65 110.36 390.66 107.62 393.87 105.65C397.07 103.67 400.4 103.08 403.88 103.9L403.98 103.47C400.51 102.65 397.78 100.64 395.81 97.44C393.83 94.22 393.24 90.89 394.06 87.43L393.63 87.33C392.81 90.8 390.8 93.53 387.6 95.51C384.39 97.49 381.05 98.07 377.58 97.25L377.48 97.68C380.95 98.5 383.68 100.52 385.66 103.72C387.65 106.91 388.22 110.24 387.4 113.72ZM424.27 130.49L424.8 130.61C425.82 126.26 428.35 122.83 432.38 120.35C436.4 117.86 440.58 117.13 444.94 118.16L445.07 117.63C440.72 116.6 437.29 114.08 434.81 110.04C432.32 106.01 431.59 101.82 432.61 97.48L432.08 97.36C431.06 101.71 428.53 105.13 424.5 107.62C420.48 110.11 416.29 110.84 411.94 109.81L411.81 110.34C416.17 111.37 419.59 113.89 422.07 117.92C424.56 121.94 425.29 126.14 424.27 130.49ZM385.48 69.48C369.79 77.15 358.5 92.74 357.19 111.41C355.23 139.29 376.24 163.47 404.11 165.43C417.34 166.36 429.75 162.11 439.33 154.41C444.08 150.59 448.99 153.96 446.92 158.77C435.59 185.19 408.47 202.81 378.18 200.68C339.89 197.99 311.04 164.77 313.73 126.49C316.3 89.8 347.05 61.67 383.44 62C390.15 62.06 391.57 66.5 385.48 69.48ZM380.39 15.53H380.57C444.32 15.53 496.48 67.68 496.48 131.43C496.48 195.18 444.25 247.34 380.57 247.34H380.39C316.71 247.34 264.48 195.18 264.48 131.43C264.48 67.68 316.64 15.53 380.39 15.53Z" fill="white"/>
</g>
<defs>
<clipPath id="clip0_1069_142">
<rect width="512" height="262.86" fill="white"/>
</clipPath>
</defs>
</svg>
