<svg width="769" height="629" viewBox="0 0 769 629" fill="none" xmlns="http://www.w3.org/2000/svg">
<path opacity="0.75" d="M411.772 559.339C559.298 559.339 678.891 439.717 678.891 292.157C678.891 144.597 559.298 24.9751 411.772 24.9751C264.246 24.9751 144.653 144.596 144.653 292.157C144.653 439.718 264.246 559.339 411.772 559.339Z" fill="#ED80F9"/>
<path d="M191.655 500.491C191.655 500.491 250.589 451.477 252.706 381.661L252.869 377.796C253.278 370.793 253.556 340.693 228.185 339.286C226.682 339.222 225.206 338.86 223.844 338.221C222.481 337.583 221.259 336.68 220.248 335.565C219.237 334.451 218.457 333.147 217.953 331.73C217.449 330.312 217.231 328.808 217.312 327.305C219.406 292.373 222.722 200.388 199.043 209.479L184.167 216.095C182.76 216.723 181.222 217.003 179.684 216.912C178.145 216.82 176.652 216.359 175.329 215.568C174.006 214.777 172.894 213.678 172.087 212.364C171.279 211.052 170.799 209.563 170.689 208.025C168.378 176.434 160.921 102.807 141.577 124.829L128.811 138.565C127.969 139.474 126.901 140.144 125.717 140.509C124.533 140.873 123.273 140.918 122.066 140.64C120.858 140.363 119.745 139.77 118.84 138.923C117.935 138.077 117.269 137.007 116.91 135.821C107.296 104.044 78.826 19.6265 48.617 23.4145C48.617 23.4145 14.15 56.7995 30.727 203.882C30.8107 204.623 30.7204 205.373 30.4633 206.073C30.2062 206.772 29.7894 207.402 29.246 207.912C28.7031 208.423 28.0485 208.8 27.3342 209.013C26.62 209.226 25.8659 209.269 25.132 209.138C14.684 207.268 -4.32699 206.905 0.889014 230.913C7.13301 259.63 36.538 330.064 43.532 346.56C43.668 346.881 43.714 347.234 43.664 347.58C43.6136 347.926 43.4694 348.251 43.2471 348.521C43.0248 348.79 42.7328 348.993 42.403 349.108C42.073 349.223 41.7178 349.245 41.376 349.172C31.33 347.023 5.31701 344.024 28.447 377.324C56.639 417.906 107.505 482.898 191.655 500.491Z" fill="#EA9FFC"/>
<path d="M262.938 586.107C262.938 586.107 219.971 564.464 169.221 462.925C127.822 380.107 81.2531 244.132 48.6171 23.4141" stroke="white" stroke-width="3" stroke-miterlimit="10"/>
<path d="M21.816 350.417L30.039 358.865L38.354 367.206L55.108 383.748L63.609 391.856L72.203 399.872C77.96 405.183 83.795 410.423 89.73 415.502C95.665 420.581 101.67 425.613 107.837 430.413C114.004 435.213 120.325 439.828 126.778 444.187C133.223 448.575 139.988 452.472 147.018 455.844C153.973 459.237 161.431 461.889 169.228 462.801V463.033C161.338 462.561 153.734 460.072 146.531 456.949C139.349 453.735 132.425 449.972 125.82 445.695C112.559 437.192 100.171 427.483 88.239 417.257C76.307 407.031 64.916 396.162 53.826 385.023C42.736 373.884 31.979 362.413 21.639 350.564L21.817 350.417H21.816ZM192.768 493.937L194.437 489.299L196.16 484.661L199.576 475.447L206.57 457.096L220.566 420.434L227.474 402.083L234.159 383.671C236.379 377.537 238.397 371.332 240.21 365.065C241.153 361.973 242.026 358.804 242.714 355.627C243.069 354.081 243.348 352.442 243.564 350.834C243.83 349.233 243.9 347.606 243.773 345.988L243.997 345.949C244.231 347.58 244.265 349.234 244.097 350.873C243.959 352.51 243.75 354.14 243.471 355.758C242.923 358.989 242.196 362.189 241.392 365.366C239.777 371.72 237.869 377.989 235.867 384.227C231.833 396.688 227.366 409.009 222.729 421.261C218.092 433.513 213.201 445.664 208.232 457.784L192.976 493.983L192.768 493.937ZM149.151 419.398L151.469 413.168L153.788 406.984L158.378 394.523L167.59 369.649L169.831 363.403L172.149 357.219L176.694 344.766L185.418 319.737L193.919 294.638C196.647 286.236 199.12 277.764 201.647 269.315C204.174 260.866 206.331 252.31 208.131 243.683C209.931 235.056 211.462 226.353 211.416 217.51H211.647L211.756 220.834C211.756 221.383 211.802 221.939 211.794 222.496L211.717 224.15L211.578 227.474L211.253 230.782C211.145 231.887 211.06 232.985 210.898 234.083L210.426 237.368C210.14 239.563 209.731 241.743 209.329 243.915C207.722 252.627 205.65 261.238 203.378 269.795C198.78 286.893 193.378 303.76 187.644 320.502C181.91 337.244 175.627 353.756 169.244 370.259C162.861 386.762 156.245 403.181 149.344 419.483L149.151 419.398ZM111.794 315.833L113.046 309.835L114.352 303.844L116.933 291.871L122.304 267.97L123.618 261.995L125.009 256.035L127.76 244.108L133.1 220.215L138.509 196.353L141.067 184.395L142.312 178.405L143.587 172.43C145.287 164.452 146.833 156.452 148.131 148.413C148.826 144.401 149.452 140.382 149.901 136.339C150.109 134.321 150.302 132.296 150.357 130.271C150.496 128.253 150.366 126.226 149.97 124.242L150.194 124.172C150.695 126.165 150.929 128.216 150.89 130.271C150.89 132.319 150.797 134.36 150.666 136.401C150.364 140.474 149.893 144.533 149.344 148.583C148.231 156.676 146.84 164.723 145.349 172.754C142.35 188.809 138.927 204.787 135.356 220.718L124.058 268.395L112.018 315.888L111.794 315.833ZM130.171 370.924L124.591 367.886L119.182 364.524C115.622 362.215 112.128 359.808 108.702 357.304C101.911 352.207 95.3656 346.79 89.089 341.071L84.414 336.743L79.893 332.244L75.473 327.652C74.0103 326.109 72.5675 324.548 71.145 322.968C65.457 316.661 59.955 310.168 54.754 303.443C53.456 301.757 52.242 300.018 50.975 298.31L49.097 295.728L47.281 293.116L43.664 287.867L40.186 282.518C39.003 280.746 37.8693 278.942 36.786 277.107L33.455 271.696C31.338 268.017 29.15 264.376 27.273 260.588L24.313 254.953L21.5 249.249C19.591 245.461 17.845 241.588 16.09 237.731L14.815 234.817L13.594 231.895L11.206 226.013C9.65997 222.078 8.23097 218.082 6.79297 214.101L7.00897 214.016C13.2801 229.706 20.5596 244.973 28.802 259.723L30.348 262.49L31.955 265.219L35.178 270.676L38.532 276.087L41.956 281.413L45.464 286.684L49.104 291.871L50.928 294.461L52.814 297.004L56.608 302.074C66.8496 315.513 78.1285 328.128 90.341 339.804C96.4597 345.626 102.845 351.161 109.475 356.392C112.791 359.005 116.168 361.54 119.638 363.952C123.108 366.364 126.593 368.698 130.294 370.777L130.171 370.924ZM85.008 216.675C78.416 210.012 72.272 202.947 66.345 195.696C63.362 192.094 60.518 188.376 57.659 184.666C54.8 180.956 52.103 177.129 49.398 173.303C46.693 169.477 44.135 165.573 41.67 161.561C39.205 157.549 36.786 153.522 34.614 149.341C32.3813 145.18 30.4218 140.879 28.748 136.463C27.9217 134.235 27.2452 131.955 26.723 129.637C26.4718 128.476 26.2861 127.302 26.167 126.12C26.0701 124.934 26.0855 123.741 26.213 122.557H26.437C26.4331 124.882 26.7849 127.194 27.48 129.413C28.1439 131.645 28.944 133.834 29.876 135.968C31.7399 140.229 33.8374 144.383 36.159 148.413C40.796 156.506 45.95 164.298 51.283 171.95C56.6132 179.609 62.1143 187.148 67.782 194.56C73.462 201.981 79.227 209.301 85.17 216.497L85.008 216.675Z" fill="white"/>
<path d="M648.149 404.665C648.149 404.665 631.882 430.235 618.62 439.665M488.303 605.656C488.303 605.656 566.765 555.907 618.62 439.665C636.086 400.514 650.529 353.864 657.941 298.982L488.303 605.656Z" stroke="#93B9F9" stroke-width="3" stroke-miterlimit="10"/>
<path d="M623.798 407.084C623.798 407.084 628.111 417.21 624.95 424.809M532.654 541.042C532.654 541.042 530.915 569.998 521.966 578.192L532.654 541.042Z" stroke="#93B9F9" stroke-width="3" stroke-miterlimit="10"/>
<path d="M544.192 408.135C596.889 484.305 538.187 537.711 538.187 537.711L533.195 549.306C533.195 549.306 493.62 465.723 544.192 408.135Z" fill="#BCD0FB"/>
<path d="M537.438 538.77L538.141 535.044L538.821 531.326L539.988 523.851C540.761 518.881 541.472 513.895 541.997 508.902L542.77 501.404L543.38 493.906C543.751 488.904 544.068 483.896 544.153 478.887C544.238 473.878 544.37 468.838 544.246 463.86C544.122 458.882 543.906 453.85 543.581 448.841C543.458 446.336 543.172 443.847 542.963 441.343L542.515 437.602L542.299 435.731C542.214 435.105 542.098 434.494 542.028 433.868C541.503 428.851 540.482 423.92 539.71 418.919L539.926 418.857C542.551 428.627 544.386 438.592 545.413 448.655C546.447 458.72 546.813 468.843 546.51 478.956C546.18 489.065 545.287 499.148 543.836 509.157C543.11 514.16 542.242 519.138 541.232 524.091C540.222 529.044 539.099 533.977 537.708 538.839L537.438 538.77Z" fill="white"/>
<path d="M586.17 520.635C586.17 520.635 575.112 528.45 565.691 529.316" stroke="#93B9F9" stroke-width="3" stroke-miterlimit="10"/>
<path d="M582.229 520.752C582.229 520.752 638.528 421.887 760.352 456.996C760.352 456.996 735.229 548.842 569.47 530.429L582.229 520.752Z" fill="#BCD0FB"/>
<path d="M692.879 479.76L689.34 480.796L685.754 481.793L678.621 483.865L664.37 487.977L636.132 496.843C626.805 500.012 617.546 503.375 608.466 507.139C603.923 509.016 599.467 511.097 595.112 513.377C592.894 514.459 590.746 515.696 588.605 516.886L585.452 518.819L582.361 520.844L582.214 520.666C586.09 517.565 590.203 514.774 594.517 512.318C598.816 509.844 603.229 507.571 607.74 505.508C616.768 501.407 626.006 497.782 635.414 494.648C644.826 491.556 654.34 488.742 663.93 486.23C673.52 483.718 683.173 481.453 692.895 479.536L692.879 479.76Z" fill="white"/>
<path d="M769 234.987C745.754 387.358 642.971 409.944 642.971 409.944C642.971 409.944 684.857 273.381 769 234.987Z" fill="#BCD0FB"/>
<path d="M646.356 400.282L657.369 387.806L668.188 375.237L678.76 362.46L681.388 359.26L683.969 356.021L689.077 349.505L694.131 342.95L699.038 336.279L701.511 332.963L703.876 329.562L706.249 326.176L708.637 322.79L713.227 315.903L714.378 314.179L715.453 312.409L717.609 308.869C720.7 304.277 723.204 299.346 726.11 294.592L726.326 294.692C721.505 304.7 716.085 314.408 710.097 323.764C704.054 333.04 697.678 342.161 690.862 350.927C684.046 359.693 676.975 368.18 669.564 376.443C662.153 384.706 654.517 392.753 646.511 400.406L646.356 400.282Z" fill="white"/>
<path d="M514.091 197.552C693.057 299.74 623.736 411.846 623.736 411.846C623.736 411.846 520.807 305.63 513.442 200.048" fill="#BCD0FB"/>
<path d="M623.474 405.639C622.349 397.576 620.801 389.577 618.837 381.676C616.989 373.768 614.792 365.946 612.253 358.232L608.288 346.73L606.155 341.041L603.899 335.398C600.807 327.905 597.399 320.562 593.674 313.368C589.949 306.174 585.972 299.129 581.742 292.234C577.384 285.409 572.708 278.8 567.832 272.322L566.928 271.101L565.977 269.918L564.076 267.545L562.175 265.172L561.224 263.982L560.204 262.815L556.217 258.177C554.918 256.631 553.458 255.201 552.098 253.693L550.034 251.452C549.366 250.685 548.668 249.944 547.94 249.233L543.635 244.912C542.909 244.201 542.214 243.451 541.456 242.771L539.215 240.7L534.779 236.572L534.926 236.394C541.227 241.586 547.255 247.099 552.986 252.913L555.135 255.085L556.209 256.182L557.237 257.311L561.356 261.841L562.384 262.969L563.373 264.144L565.343 266.463L567.314 268.782L568.296 269.957L569.231 271.163L572.986 276.002C574.246 277.61 575.39 279.302 576.595 280.949C579.038 284.219 581.232 287.674 583.504 291.059C587.871 297.954 592.005 305.027 595.722 312.278C603.127 326.841 609.23 342.03 613.96 357.667C616.325 365.482 618.373 373.39 620.027 381.383C621.733 389.368 622.966 397.447 623.721 405.577L623.474 405.639Z" fill="white"/>
<path d="M655.777 306.287C642.732 292.837 568.891 168.611 602.963 48.041C740.089 167.173 667.879 291.175 658.451 306.009C658.312 306.227 658.126 306.411 657.906 306.547C657.686 306.683 657.438 306.767 657.181 306.794C656.924 306.821 656.664 306.789 656.421 306.701C656.178 306.614 655.957 306.472 655.777 306.287Z" fill="#BCD0FB"/>
<path d="M656.673 302.925C657.908 295.012 658.751 287.043 659.2 279.047C659.803 271.07 660.058 263.07 660.019 255.085C660.003 239.113 658.903 223.16 656.727 207.337C655.661 199.438 654.2 191.592 652.562 183.785C650.924 175.978 648.845 168.271 646.619 160.595L646.21 159.15L645.754 157.727L644.842 154.875L643.93 152.015L643.474 150.593L642.971 149.186L640.947 143.543C640.313 141.642 639.494 139.817 638.791 137.947C638.088 136.077 637.4 134.19 636.604 132.35L634.285 126.823C633.512 124.961 632.662 123.159 631.804 121.343L629.308 115.855L629.509 115.747C633.242 122.858 636.874 130.039 639.942 137.467C641.58 141.147 642.979 144.911 644.424 148.66L644.965 150.067L645.46 151.489L646.441 154.342L647.431 157.186L647.917 158.616L648.381 160.008L650.159 165.766C650.769 167.683 651.24 169.631 651.789 171.571C652.91 175.436 653.775 179.355 654.733 183.259C656.465 191.112 657.948 199.012 659.069 206.974C661.242 222.915 662.175 239 661.859 255.085C661.696 263.116 661.264 271.147 660.452 279.148C659.696 287.161 658.504 295.127 656.882 303.01L656.673 302.925Z" fill="white"/>
<path d="M440.057 72.1582C440.057 72.1582 447.12 72.3822 484.477 72.1582C521.834 71.9342 520.026 107.924 520.026 107.924L540.962 595.97L289.384 602.719C252.289 603.708 215.195 605.71 178.262 609.057C113.973 614.885 120.882 580.457 123.308 572.163L123.533 133.788C122.76 117.061 124.692 104.863 127.868 95.9742C130.379 89.02 134.974 83.0099 141.027 78.7642C147.079 74.5185 154.294 72.244 161.686 72.2512L213.17 72.1582C213.17 72.1582 215.45 65.5492 224.329 65.3172C232.83 65.1012 409.261 65.3172 425.258 65.3172H426.927C428.905 65.2402 436.154 65.5182 440.057 72.1582Z" fill="#EA605A"/>
<path d="M383.109 48.6982L347.56 47.5542C347.56 47.5542 361.679 24.9982 347.328 10.6442C334.963 -1.72379 321.262 -0.223787 317.691 0.433213L316.146 0.696213C313.456 1.12121 303.302 3.82721 304.492 20.4462C305.86 39.5852 306.996 46.4182 306.996 46.4182L271.447 44.9262C270.346 44.8776 269.246 44.8132 268.147 44.7332C265.643 44.5632 258.209 44.8182 256.509 53.4992C256.306 54.5692 256.208 55.6562 256.215 56.7452V65.3172H394.044C394.044 65.3172 396.316 49.1462 383.109 48.6982ZM327.529 34.7842C325.68 34.7865 323.872 34.2397 322.334 33.2132C320.796 32.1867 319.598 30.7266 318.891 29.0182C318.183 27.3103 317.997 25.4307 318.357 23.6172C318.718 21.8038 319.608 20.138 320.915 18.8302C322.222 17.5227 323.888 16.6324 325.701 16.2722C327.514 15.9118 329.393 16.0976 331.1 16.8062C332.808 17.5143 334.267 18.7132 335.293 20.2512C336.492 22.0491 337.031 24.2066 336.818 26.3569C336.606 28.5072 335.655 30.5176 334.128 32.0462C332.378 33.797 330.004 34.7814 327.529 34.7832V34.7842Z" fill="#483EB4"/>
<path d="M291.084 50.2833H272.853C272.853 50.2833 263.526 49.1473 263.294 59.8533V65.2183M310.442 25.4473C310.442 25.4473 304.26 1.97929 332.081 6.30829L310.442 25.4473ZM310.674 29.5513V34.7923V29.5513ZM296.547 50.2833H301.107H296.547Z" stroke="#BCD0FB" stroke-miterlimit="10"/>
<path d="M191.485 252.65L183.077 243.304L464.508 246.497V252.65H191.485ZM190.782 270.738L182.374 261.4L463.805 264.585V270.738H190.782Z" fill="#FFEAE8"/>
<path d="M489.284 572.132L175.967 587.468C169.067 587.442 162.457 584.688 157.579 579.808C152.7 574.929 149.949 568.318 149.924 561.418V106.471C149.942 99.5654 152.691 92.947 157.57 88.0601C162.449 83.1741 169.062 80.4167 175.967 80.3901H468.086C491.386 80.3901 492.746 102.521 492.77 125.842C492.77 131.809 492.932 137.774 493.257 143.736L514.965 549.754C515.057 551.532 515.598 558.504 515.336 560.251C513.427 572.781 502.275 572.132 489.284 572.132Z" fill="#FFC8C3"/>
<path d="M211.949 333.929L187.745 333.241C185.726 333.175 183.806 332.346 182.373 330.922C180.939 329.498 180.098 327.584 180.017 325.565L179.136 303.783C179.115 303.161 179.219 302.541 179.443 301.96C179.667 301.38 180.005 300.85 180.438 300.403C180.871 299.956 181.389 299.6 181.962 299.357C182.535 299.115 183.15 298.99 183.772 298.99H207.675C213 298.99 215.086 302.028 215.488 306.906L216.083 313.26L217.76 327.482C217.848 328.297 217.764 329.121 217.511 329.901C217.259 330.681 216.845 331.398 216.297 332.006C215.749 332.615 215.078 333.101 214.328 333.432C213.579 333.764 212.768 333.933 211.949 333.929Z" fill="#FF918C"/>
<path d="M212.443 393.232L191.292 393.055C183.038 392.823 180.913 390.736 180.596 382.465L179.244 369.865C179.143 367.252 180.202 363.743 182.822 363.743L207.884 361.316C213.208 361.316 216.207 364.284 216.601 369.169C216.779 371.287 216.702 374.209 216.957 376.327L217.459 385.394C217.838 388.857 215.929 393.232 212.443 393.232V393.232Z" stroke="white" stroke-width="3" stroke-miterlimit="10"/>
<path d="M208.834 389.136L193.108 389.004C186.972 388.834 185.38 387.265 185.156 381.135L184.151 371.805C184.074 369.857 184.862 367.252 186.81 367.252L205.419 365.451C209.375 365.451 211.601 367.654 211.903 371.287C212.026 372.833 211.972 375.036 212.158 376.606L212.536 383.354C212.838 385.881 211.423 389.136 208.834 389.136Z" fill="#FFEDEC"/>
<path d="M212.443 442.58L191.292 442.402C183.038 442.162 180.913 440.083 180.596 431.812L179.244 419.212C179.143 416.592 180.202 413.083 182.822 413.083L207.884 410.663C213.208 410.663 216.207 413.631 216.601 418.517C216.779 420.635 216.702 423.556 216.957 425.667L217.459 434.741C217.838 438.204 215.929 442.58 212.443 442.58V442.58Z" stroke="white" stroke-width="3" stroke-miterlimit="10"/>
<path d="M208.834 438.483L193.108 438.351C186.972 438.174 185.38 436.612 185.156 430.482L184.151 421.114C184.074 419.166 184.862 416.561 186.81 416.561L205.419 414.752C209.375 414.752 211.601 416.963 211.903 420.596C212.026 422.142 211.972 424.337 212.158 425.914L212.536 432.654C212.838 435.229 211.423 438.483 208.834 438.483Z" fill="#FFEDEC"/>
<path d="M212.443 491.919L191.292 491.749C183.038 491.51 180.913 489.43 180.596 481.159L179.244 468.552C179.143 465.939 180.202 462.43 182.822 462.43L207.884 460.003C213.208 460.003 216.207 462.979 216.601 467.856C216.779 469.982 216.702 472.896 216.957 475.014L217.459 484.089C217.838 487.544 215.929 491.919 212.443 491.919V491.919Z" stroke="white" stroke-width="3" stroke-miterlimit="10"/>
<path d="M208.834 487.822L193.108 487.699C186.972 487.521 185.38 485.96 185.156 479.822L184.151 470.454C184.074 468.513 184.862 465.901 186.81 465.901L205.419 464.1C209.375 464.1 211.601 466.31 211.903 469.936C212.026 471.482 211.972 473.685 212.158 475.254L212.536 482.002C212.838 484.576 211.423 487.822 208.834 487.822Z" fill="#FFEDEC"/>
<path d="M212.219 541.491L191.068 541.32C182.814 541.081 180.689 539.001 180.364 530.731L179.02 518.131C178.919 515.51 179.97 512.001 182.59 512.001L207.621 509.574C212.946 509.574 215.944 512.55 216.346 517.428C216.516 519.553 216.447 522.475 216.694 524.585L217.204 533.66C217.613 537.115 215.705 541.491 212.219 541.491V541.491Z" stroke="white" stroke-width="4" stroke-miterlimit="10"/>
<path d="M208.603 537.401L192.876 537.27C186.748 537.092 185.148 535.531 184.924 529.393L183.927 520.025C183.85 518.085 184.63 515.472 186.578 515.472L205.187 513.671C209.144 513.671 211.369 515.882 211.671 519.507C211.802 521.053 211.748 523.256 211.933 524.833L212.312 531.573C212.613 534.132 211.192 537.401 208.603 537.401Z" fill="#FFEDEC"/>
<path d="M238.587 521.447L451 522.784C451.949 522.773 452.875 523.08 453.629 523.656C454.384 524.231 454.925 525.043 455.165 525.961C455.168 526.005 455.168 526.049 455.165 526.093C455.311 526.805 455.295 527.542 455.118 528.248C454.941 528.954 454.608 529.61 454.142 530.169C453.677 530.728 453.092 531.175 452.43 531.477C451.768 531.779 451.047 531.928 450.32 531.913L235.318 533.714C234.329 533.741 233.36 533.429 232.572 532.83C231.784 532.232 231.223 531.382 230.983 530.422C230.987 530.375 230.987 530.329 230.983 530.282C229.986 525.706 233.695 521.416 238.587 521.447ZM238.587 471.682L451 473.02C451.949 473.008 452.875 473.314 453.63 473.89C454.385 474.466 454.925 475.278 455.165 476.197C455.169 476.241 455.169 476.284 455.165 476.328C455.312 477.04 455.296 477.777 455.119 478.482C454.942 479.187 454.608 479.844 454.142 480.402C453.676 480.961 453.091 481.407 452.429 481.708C451.767 482.009 451.047 482.157 450.32 482.141L235.318 483.95C234.328 483.975 233.358 483.662 232.57 483.062C231.782 482.462 231.222 481.611 230.983 480.649C230.986 480.605 230.986 480.562 230.983 480.518C229.986 475.934 233.695 471.651 238.587 471.682ZM238.587 421.918L451 423.255C451.949 423.243 452.875 423.549 453.63 424.125C454.385 424.701 454.925 425.513 455.165 426.432C455.169 426.476 455.169 426.519 455.165 426.563C455.312 427.275 455.296 428.012 455.119 428.717C454.942 429.422 454.608 430.079 454.142 430.637C453.677 431.196 453.091 431.642 452.429 431.943C451.767 432.244 451.047 432.392 450.32 432.376L235.318 434.177C234.328 434.206 233.358 433.895 232.569 433.296C231.781 432.697 231.221 431.845 230.983 430.884C230.986 430.84 230.986 430.797 230.983 430.753C229.986 426.169 233.695 421.887 238.587 421.918ZM238.572 372.068L450.984 373.405C451.934 373.394 452.861 373.701 453.617 374.277C454.373 374.852 454.915 375.664 455.157 376.582C455.154 376.626 455.154 376.67 455.157 376.714C455.302 377.427 455.285 378.163 455.107 378.868C454.929 379.573 454.595 380.229 454.129 380.788C453.663 381.347 453.077 381.793 452.415 382.094C451.753 382.395 451.031 382.543 450.304 382.526L235.303 384.335C234.314 384.36 233.346 384.047 232.558 383.449C231.77 382.85 231.209 382.001 230.967 381.042V380.903C229.978 376.327 233.68 372.037 238.572 372.068Z" fill="#FFEAE8"/>
<path d="M260.257 495.776L287.815 494.926L285.612 587.468C285.612 587.468 285.489 590.962 281.192 591.193C276.895 591.424 271.184 592.353 270.604 587.004C270.024 581.655 263.649 534.302 263.649 534.302L260.257 495.776ZM315.249 583.804C315.552 584.921 315.779 586.057 315.929 587.205C316.169 588.906 317.359 591.843 322.946 590.722C330.674 589.176 334.538 589.818 332.661 584.082C330.784 578.346 327.599 554.917 327.599 554.917C327.599 554.917 323.441 516.863 323.456 509.876C323.456 509.103 323.456 508.33 323.387 507.557L322.715 497.508L301.153 494.37L295.651 494.687L298.673 512.867L302.088 530.267L305.612 546.631L310.62 567.262L315.249 583.804Z" fill="#160A84"/>
<path d="M611.403 353.401C611.403 353.401 620.893 348.345 626.256 338.807L636.148 357.66C628.852 363.844 611.418 367.484 611.418 367.484L611.403 353.401Z" fill="#FF928E"/>
<path d="M553.937 386.492L562.546 442.997L573.365 510.247L583.365 575.054L584.47 584.693C584.526 585.17 584.715 585.62 585.016 585.994C585.316 586.367 585.717 586.648 586.17 586.803C589.045 587.792 595.599 589.485 602.222 587.313C602.624 587.181 602.973 586.92 603.214 586.571C603.455 586.223 603.576 585.805 603.559 585.381L602.562 554.461L600.931 519.097L598.613 480.239L593.976 435.909L627.129 496.526C627.129 496.526 657.477 555.598 660.321 564.68C660.591 565.526 660.892 566.362 661.225 567.185L666.557 580.472C666.727 580.889 667.034 581.236 667.428 581.453C667.822 581.671 668.278 581.748 668.721 581.67C671.851 581.122 678.891 579.622 683.057 576.7C683.438 576.423 683.719 576.03 683.858 575.58C683.998 575.13 683.988 574.647 683.83 574.203L672.338 541.089L655.468 494.547L639.764 452.427C639.764 452.427 627.778 418.957 623.373 409.813L622.291 407.494L611.403 382.295L553.937 386.492Z" fill="#51136C"/>
<path d="M600.467 595.87C604.764 600.639 605.877 608.562 606.194 611.492L606.395 613.309C606.928 617.73 602.909 617.63 602.909 617.63C602.909 617.63 564.872 617.506 558.589 617.63C552.306 617.754 553.952 614.143 553.952 614.143C559.292 604.365 588.953 595.198 588.953 595.198L600.467 595.87Z" fill="#49ABED"/>
<path d="M587.786 588.364C587.786 588.364 588.141 598.892 593.141 599.124C598.141 599.356 600.792 599.781 600.815 593.713V587.676L587.786 587.267V588.364Z" fill="#FFAFAC"/>
<path d="M684.912 587.298C692.439 588.983 697.276 606.46 699 613.757C699.394 615.442 699.873 617.096 700.383 618.75C702.199 624.656 698.219 626.588 697.23 626.975C696.998 627.06 696.774 627.16 696.542 627.261C686.589 631.651 681.859 626.441 681.086 625.46L680.762 625.066C676.511 620.041 673.242 606.715 672.16 601.876C671.928 600.839 671.67 599.808 671.387 598.784C669.71 592.647 672.369 589.578 672.369 589.578L684.912 587.298Z" fill="#49ABED"/>
<path d="M669.563 582.142C669.563 582.142 672.237 593.574 676.31 593.265C680.383 592.956 686.31 591.565 684.811 585.628C683.312 579.691 682.083 577.303 682.083 577.303L669.563 582.142Z" fill="#FFAFAC"/>
<path d="M188.602 379.118L186.439 374.89C186.05 374.134 185.969 373.256 186.214 372.441C186.459 371.627 187.011 370.939 187.752 370.522L188.742 369.966C189.277 369.67 189.904 369.585 190.499 369.728C191.094 369.871 191.614 370.232 191.956 370.739L197.034 378.144C197.18 378.361 197.382 378.536 197.618 378.65C197.854 378.763 198.116 378.812 198.378 378.791C198.639 378.769 198.89 378.679 199.105 378.529C199.319 378.378 199.49 378.173 199.599 377.935L210.202 355.256C210.265 355.115 210.372 354.998 210.507 354.922C210.642 354.846 210.797 354.815 210.95 354.833C211.103 354.851 211.247 354.917 211.36 355.022C211.473 355.128 211.55 355.266 211.578 355.418C212.505 360.234 213.263 373.089 199.901 387.466C199.47 387.927 198.886 388.215 198.258 388.275C197.63 388.335 197.002 388.163 196.493 387.791C194.267 386.183 190.65 383.13 188.602 379.118ZM188.602 428.388L186.439 424.16C186.051 423.405 185.971 422.528 186.216 421.715C186.461 420.902 187.011 420.215 187.752 419.8L188.742 419.243C189.277 418.947 189.904 418.862 190.499 419.006C191.094 419.149 191.613 419.509 191.956 420.016L197.034 427.429C197.18 427.647 197.382 427.822 197.618 427.935C197.854 428.049 198.117 428.098 198.378 428.076C198.639 428.055 198.89 427.965 199.105 427.815C199.32 427.664 199.49 427.459 199.599 427.221L210.202 404.526C210.266 404.385 210.374 404.268 210.509 404.193C210.644 404.117 210.799 404.087 210.952 404.106C211.105 404.125 211.249 404.193 211.361 404.299C211.474 404.405 211.55 404.544 211.578 404.696C212.505 409.511 213.263 422.366 199.901 436.744C199.47 437.204 198.885 437.491 198.257 437.549C197.629 437.607 197.002 437.434 196.493 437.061C194.267 435.461 190.65 432.407 188.602 428.388ZM188.602 477.704L186.439 473.476C186.05 472.72 185.969 471.842 186.214 471.027C186.459 470.213 187.011 469.525 187.752 469.108L188.742 468.552C189.278 468.256 189.904 468.172 190.499 468.315C191.094 468.458 191.613 468.818 191.956 469.325L197.034 476.73C197.18 476.948 197.382 477.123 197.618 477.236C197.854 477.35 198.117 477.399 198.378 477.377C198.639 477.355 198.89 477.264 199.104 477.114C199.319 476.964 199.489 476.759 199.599 476.521L210.202 453.811C210.266 453.671 210.374 453.554 210.509 453.479C210.643 453.404 210.799 453.373 210.952 453.391C211.105 453.41 211.249 453.478 211.361 453.584C211.474 453.69 211.55 453.829 211.578 453.981C212.505 458.797 213.263 471.652 199.901 486.029C199.47 486.49 198.886 486.778 198.258 486.838C197.63 486.898 197.002 486.726 196.493 486.354C194.267 484.746 190.65 481.693 188.602 477.704ZM188.602 527.732L186.439 523.503C186.05 522.747 185.97 521.869 186.215 521.055C186.46 520.24 187.011 519.553 187.752 519.136L188.742 518.579C189.278 518.283 189.904 518.199 190.499 518.342C191.094 518.485 191.614 518.845 191.956 519.352L197.034 526.758C197.18 526.975 197.382 527.15 197.618 527.263C197.854 527.377 198.116 527.426 198.378 527.404C198.639 527.383 198.89 527.293 199.105 527.142C199.319 526.992 199.49 526.787 199.599 526.549L210.202 503.87C210.265 503.729 210.372 503.612 210.507 503.536C210.642 503.46 210.797 503.429 210.95 503.447C211.103 503.465 211.247 503.532 211.359 503.637C211.472 503.742 211.549 503.88 211.578 504.032C212.505 508.848 213.263 521.702 199.901 536.08C199.47 536.541 198.886 536.829 198.258 536.889C197.63 536.949 197.002 536.776 196.493 536.404C194.267 534.797 190.65 531.743 188.602 527.732Z" fill="#FE6F62"/>
<path d="M300.257 260.163L323.789 254.946L316.022 298.287L300.257 260.163Z" fill="#13087A"/>
<path d="M334.314 198.866C339.307 210.793 337.135 233.039 337.135 233.047C337.313 241.418 324.925 240.723 324.925 240.723L323.093 255.363C314.453 262.158 301.895 262.753 301.895 262.753L295.265 247.973L303.518 225.364L302.645 224.591L302.846 223.045C302.86 222.906 302.846 222.766 302.803 222.633C302.761 222.5 302.691 222.377 302.599 222.272C301.37 220.942 297.027 215.817 298.364 211.303C298.541 210.66 298.887 210.077 299.365 209.612C299.843 209.147 300.436 208.818 301.084 208.659C302.923 208.242 305.597 209.1 306.949 216.513C306.967 216.613 307.019 216.704 307.097 216.771C307.174 216.837 307.272 216.874 307.374 216.876H308.232C308.28 216.877 308.328 216.867 308.372 216.846C308.416 216.825 308.454 216.794 308.483 216.755C308.513 216.717 308.534 216.673 308.544 216.626C308.554 216.578 308.553 216.529 308.541 216.482C308.016 214.349 305.721 204.184 309.569 203.148C312.259 202.421 324.353 201.973 334.299 198.928L334.314 198.866Z" fill="#D97570"/>
<path d="M295.937 247.432L282.985 259.027L265.535 262.181C265.535 262.181 229.731 287.218 225.898 317.41C222.065 347.602 250.674 358.425 259.221 357.551C267.768 356.677 288.881 357.204 308.773 338.706C307.437 334.776 306.844 330.632 307.027 326.485C307.027 326.485 281.207 346.382 264.105 336.673C247.003 326.964 260.79 311.829 260.79 311.829L257.652 395.675L255.334 460.366L254.252 492.391C254.252 492.391 253.904 495.305 256.57 495.189L301.702 493.79L305.257 449.104L308.279 403.729L312.004 358.239L316.54 295.759L295.937 247.432Z" fill="white"/>
<path d="M323.65 248.615L329.152 253.887C329.152 253.887 345.829 252.341 356.679 265.365C367.529 278.389 378.24 296.161 395.064 305.313C411.888 314.465 433.604 314.001 449.586 308.652L452.677 319.157C397.808 352.859 360.319 319.157 360.319 319.157L340.226 359.113L335.729 403.119L333.016 430.173L329.291 468.822L326.695 495.807C326.633 498.219 324.863 497.964 324.863 497.964L300.381 494.184L310.427 358.989L314.963 296.509L323.65 248.615Z" fill="#BCD0FB"/>
<path d="M373.171 279.372L380.837 279.032H393.666C398.086 279.148 395.644 283.569 395.644 283.569L386.919 300.791C375.404 324.993 354.662 357.412 354.662 357.412C353.426 359.894 350.551 359.198 350.551 359.198L305.798 358.665C305.798 358.665 301.779 359.074 303.17 355.117C304.561 351.16 323.093 286.777 323.093 286.777C323.093 286.777 323.526 283.167 326.184 283.167C328.441 283.129 361.818 280.33 373.171 279.372Z" fill="#4C4FF9"/>
<path d="M375.226 285.563C375.19 286.036 374.979 286.478 374.635 286.804C374.291 287.13 373.838 287.316 373.364 287.326H372.746L347.846 288.586L345.079 288.818C344.307 288.918 343.093 288.818 343.055 287.233C343.056 287.013 343.076 286.793 343.117 286.576L344.237 280.439C344.237 280.439 344.353 279.395 345.976 279.511C347.613 279.506 349.248 279.387 350.868 279.155C351.245 279.11 351.6 278.954 351.888 278.706C352.175 278.458 352.383 278.13 352.483 277.764L352.769 276.759C352.892 276.275 352.987 275.785 353.055 275.29C353.124 274.858 353.542 274.154 355.373 273.922C357.838 273.613 365.528 272.5 367.328 272.237L367.808 272.16C368.271 272.075 370.126 271.858 369.801 273.706C369.671 274.507 369.482 275.297 369.237 276.071C369.205 276.18 369.2 276.295 369.222 276.407C369.244 276.519 369.295 276.622 369.368 276.709C369.441 276.796 369.534 276.864 369.639 276.907C369.744 276.95 369.858 276.965 369.971 276.952L374.801 276.38C374.801 276.38 377.475 276.164 376.896 279.009C376.502 280.933 375.891 283.005 375.543 284.133C375.411 284.604 375.305 285.081 375.226 285.563Z" fill="#7D97F4"/>
<path d="M306.578 326.331C306.578 326.331 306.578 316.019 314.492 314.543C314.492 314.543 320.929 314.388 333.882 319.119C333.882 319.119 333.642 324.236 328.14 322.922L331.316 325.48C331.316 325.48 331.007 329.67 326.123 327.652L329.214 330.907C329.214 330.907 327.738 334.71 323.317 332.306C323.317 332.306 322.467 330.984 319.283 334.625C319.283 334.625 316.269 339.641 308.626 339.108C308.642 339.116 306.424 330.443 306.578 326.331ZM455.304 319.157C455.304 319.157 467.878 328.039 488.349 330.366C488.349 330.366 490.915 324.707 483.712 319.157C476.509 313.607 467.429 308.026 467.429 308.026C467.429 308.026 468.712 305.035 473.326 304.788C473.98 304.764 474.623 304.611 475.218 304.336C475.812 304.061 476.346 303.671 476.788 303.188C477.804 301.935 478.397 300.392 478.481 298.781L462.599 301.873C462.599 301.873 453.473 303.327 449.346 310.075L452.932 318.469L455.304 319.157Z" fill="#D97570"/>
<path d="M223.201 65.2173H428.573C430.253 65.2174 431.916 65.5483 433.468 66.1913C435.019 66.8342 436.429 67.7764 437.617 68.9643C440.016 71.3638 441.363 74.6176 441.363 78.0103C441.363 82.6703 439.512 87.1393 436.218 90.4343C432.924 93.7293 428.456 95.5803 423.797 95.5803H222.567C219.821 95.5803 217.187 94.4893 215.245 92.5463C213.303 90.6036 212.212 87.9692 212.212 85.2223V76.2093C212.212 74.766 212.496 73.3367 213.048 72.0032C213.6 70.6697 214.409 69.458 215.43 68.4372C216.45 67.4165 217.662 66.6068 218.995 66.0543C220.329 65.5018 221.758 65.2174 223.201 65.2173Z" fill="#FE6F62"/>
<path d="M244.043 207.948C271.91 207.948 294.5 185.353 294.5 157.48C294.5 129.607 271.91 107.012 244.043 107.012C216.176 107.012 193.587 129.607 193.587 157.48C193.587 185.353 216.177 207.948 244.043 207.948Z" fill="#91B3FA"/>
<path d="M322.514 134.36L318.186 125.015L463.063 128.207V134.36H322.514Z" fill="#FFEAE8"/>
<path d="M322.514 152.587L318.186 143.242L463.063 146.434V152.587H322.514ZM322.514 170.814L318.186 161.469L463.063 164.661V170.814H322.514Z" fill="#FFEAE8"/>
<path d="M276.941 142.901H256.23V124.103C256.231 123.742 256.16 123.384 256.022 123.05C255.884 122.716 255.682 122.413 255.426 122.157C255.171 121.902 254.867 121.7 254.533 121.563C254.199 121.425 253.84 121.356 253.479 121.358H234.816C234.092 121.36 233.398 121.647 232.885 122.159C232.372 122.67 232.083 123.363 232.08 124.087V142.886H210.295C209.57 142.888 208.874 143.176 208.362 143.689C207.849 144.202 207.56 144.897 207.559 145.622V166.362C207.56 167.088 207.849 167.783 208.362 168.296C208.874 168.809 209.57 169.097 210.295 169.098H232.08V187.217C232.081 187.943 232.37 188.638 232.883 189.151C233.395 189.664 234.091 189.952 234.816 189.953H253.479C254.204 189.952 254.9 189.664 255.413 189.151C255.925 188.638 256.214 187.943 256.215 187.217V169.113H276.926C277.651 169.111 278.346 168.822 278.858 168.31C279.371 167.797 279.66 167.102 279.662 166.377V145.638C279.661 144.916 279.374 144.223 278.864 143.71C278.355 143.198 277.664 142.907 276.941 142.901Z" fill="white"/>
<path d="M307.444 216.868H308.302C308.35 216.869 308.398 216.858 308.441 216.837C308.484 216.816 308.523 216.785 308.553 216.747C308.583 216.709 308.603 216.665 308.613 216.617C308.624 216.57 308.623 216.521 308.611 216.474C308.085 214.341 305.79 204.176 309.639 203.14C313.943 201.973 342.328 201.54 347.444 190C352.035 179.657 344.755 169.523 343.194 167.529C343.031 167.32 342.877 167.104 342.722 166.887C342.058 165.929 339.631 163.154 335.705 166.524C335.297 166.88 334.915 167.265 334.562 167.676C332.821 169.664 331.268 171.809 329.925 174.084C329.24 175.375 328.189 176.435 326.903 177.129C325.778 177.773 324.455 177.983 323.186 177.717L322.568 177.585C319.476 177.083 296.462 174.099 292.977 194.692C292.969 194.736 292.951 194.777 292.924 194.812C292.897 194.847 292.862 194.875 292.822 194.894C292.782 194.913 292.738 194.922 292.694 194.92C292.65 194.918 292.606 194.906 292.567 194.885C291.493 194.274 288.116 192.775 285.705 196.531C284.689 198.142 284.242 200.048 284.438 201.942C284.961 206.845 287.194 211.407 290.744 214.828C290.768 214.847 290.787 214.871 290.801 214.898C290.815 214.925 290.821 214.956 290.821 214.986C290.821 215.017 290.814 215.047 290.8 215.075C290.787 215.102 290.768 215.126 290.744 215.145C289.816 215.748 286.377 218.329 290.141 221.182C294.445 224.436 302.351 228.973 302.699 225.047L302.962 223.099C302.977 222.96 302.962 222.819 302.918 222.685C302.874 222.552 302.802 222.43 302.707 222.326C301.478 220.996 297.135 215.871 298.472 211.357C298.65 210.714 298.996 210.13 299.474 209.664C299.952 209.198 300.545 208.868 301.192 208.706C303.031 208.296 305.713 209.154 307.057 216.567C307.085 216.65 307.136 216.723 307.205 216.776C307.274 216.83 307.357 216.862 307.444 216.868Z" fill="#0F056D"/>
<path d="M338.487 194.591C338.487 194.591 353.032 185.516 340.234 169.855" stroke="white" stroke-miterlimit="10" stroke-linecap="round"/>
<path d="M274.036 596.295C274.036 596.295 267.776 612.621 269.244 615.372C269.244 615.372 269.87 617.583 274.407 617.691L287.042 618.317C287.042 618.317 290.574 618.356 290.612 614.36C290.65 610.364 287.622 601.636 283.402 597.022L274.036 596.295ZM333.495 595.197L370.28 612.133C371.321 612.594 372.183 613.381 372.738 614.375C374.33 617.305 370.172 617.305 370.172 617.305L330.18 616.339H327.714C318.503 616.802 319.376 609.737 319.376 609.737L321.486 594.162L333.495 595.197Z" fill="#4197D1"/>
<path d="M331.014 587.962L333.263 596.179C333.263 596.179 329.399 599.982 321.092 596.643L320.388 590.08C320.388 590.08 326.748 589.787 331.014 587.962ZM273.278 590.08L274.221 595.337L274.754 598.313C276.096 598.952 277.552 599.318 279.036 599.391C280.52 599.464 282.004 599.242 283.402 598.738L282.575 590.235C282.575 590.235 276.223 591.271 273.278 590.08Z" fill="#AF352F"/>
<path d="M577.724 239.625C577.724 239.625 563.249 240.189 555.799 243.915C555.799 243.915 548.589 244.495 546.379 258.455C544.169 272.415 540.799 331.278 549.169 373.282L551.031 382.712C551.015 383.175 551.094 383.637 551.264 384.068C551.433 384.5 551.69 384.892 552.017 385.22C552.345 385.548 552.737 385.804 553.169 385.973C553.601 386.143 554.061 386.222 554.524 386.206C558.125 386.322 593.489 387.752 608.844 382.828C608.844 382.828 613.265 383.184 610.236 377.247C610.236 377.247 606.171 358.981 613.149 327.104C620.127 295.227 621.75 291.5 621.75 291.5C621.75 291.5 639.664 313.375 625.475 338.737C625.475 338.737 636.178 355.743 635.715 358.286C635.715 358.286 677.353 338.961 659.44 278.668C659.44 278.668 653.628 250.014 636.178 247.935C626.294 244.73 616.094 242.602 605.753 241.588C588.257 239.849 577.724 239.625 577.724 239.625Z" fill="#FE6F62"/>
<path d="M577.987 158.593C578.03 158.548 578.081 158.512 578.138 158.487C578.195 158.462 578.257 158.449 578.319 158.449C578.381 158.449 578.443 158.462 578.5 158.487C578.557 158.512 578.608 158.548 578.651 158.593C579.772 159.884 584.169 164.151 594.749 166.06C607.314 168.333 614.842 173.744 615.684 183.514C615.684 183.514 620.568 180.546 622.639 187.008C624.71 193.47 614.965 202.19 614.965 202.19C614.965 202.19 620.22 205.119 614.401 208.373C608.582 211.627 605.251 211.945 601.14 211.558C600.944 211 600.87 210.406 600.923 209.816C600.977 209.227 601.156 208.656 601.449 208.141C601.449 208.141 612.268 201.548 606.959 195.495C606.959 195.495 602.616 192.009 599.362 201.857C599.362 201.857 596.874 201.548 598.118 199.144C598.118 199.144 603.079 189.915 597.886 188.052C592.693 186.189 566.503 181.535 568.064 168.959C568.064 168.797 568.11 168.634 568.126 168.464C568.265 167.212 569.277 160.17 574.98 157.642C575.075 157.602 575.181 157.596 575.28 157.626C575.379 157.656 575.464 157.719 575.521 157.805L576.433 159.204C576.477 159.27 576.534 159.325 576.602 159.366C576.669 159.407 576.745 159.432 576.823 159.44C576.901 159.448 576.981 159.439 577.055 159.413C577.129 159.387 577.196 159.344 577.252 159.289L577.987 158.593Z" fill="#0D046A"/>
<path d="M576.402 180.724C576.402 180.724 568.187 200.102 569.524 213.119C569.734 215.321 570.721 217.377 572.308 218.918C573.896 220.459 575.98 221.384 578.187 221.529H578.558L577.786 238.821C577.786 239.401 577.716 239.981 577.67 240.553C577.577 241.789 577.824 245.469 583.852 246.814C591.14 248.445 592.538 249.759 603.079 246.814C603.079 246.814 606.812 245.917 606.016 242.647C605.709 241.463 605.466 240.263 605.29 239.053L601.766 211.728L601.14 211.682C601.14 211.682 601.101 211.573 601.047 211.388C600.868 210.691 600.905 209.956 601.151 209.28C601.398 208.604 601.844 208.018 602.43 207.6C604.849 205.869 610.661 201.007 607.484 196.307C607.278 195.99 607.01 195.717 606.697 195.505C606.384 195.293 606.032 195.145 605.661 195.07C604.115 194.792 601.503 195.495 599.362 201.981C599.362 201.981 596.874 201.671 598.118 199.268C598.118 199.268 603.079 190.038 597.886 188.175C594.779 187.062 584.107 184.96 576.402 180.724Z" fill="#FE9591"/>
<path d="M590.104 364.771C592.716 366.008 600.15 369.703 603.427 372.957C603.903 373.437 604.528 373.741 605.2 373.818C605.871 373.895 606.549 373.741 607.121 373.382C608.033 372.795 609.038 371.627 610.004 369.455C612.917 362.947 616.518 356.546 610.004 353.516C603.49 350.486 600.467 351.197 594.772 357.126C592.853 359.001 591.136 361.07 589.648 363.302C589.579 363.428 589.536 363.567 589.521 363.709C589.506 363.852 589.521 363.997 589.563 364.134C589.606 364.271 589.676 364.399 589.769 364.508C589.862 364.618 589.976 364.707 590.104 364.771Z" fill="#FEA7A5"/>
</svg>
